<?xml version="1.0" encoding="UTF-8" standalone="no"?>
<!-- Created with Inkscape (http://www.inkscape.org/) -->

<svg
   width="175.08896mm"
   height="123.21942mm"
   viewBox="0 0 175.08896 123.21942"
   version="1.1"
   id="svg1"
   inkscape:version="1.3 (0e150ed6c4, 2023-07-21)"
   sodipodi:docname="avg_traj_forVSS2025.svg"
   inkscape:export-filename="avg_traj_forVSS2025.png"
   inkscape:export-xdpi="600"
   inkscape:export-ydpi="600"
   xmlns:inkscape="http://www.inkscape.org/namespaces/inkscape"
   xmlns:sodipodi="http://sodipodi.sourceforge.net/DTD/sodipodi-0.dtd"
   xmlns="http://www.w3.org/2000/svg"
   xmlns:svg="http://www.w3.org/2000/svg">
  <sodipodi:namedview
     id="namedview1"
     pagecolor="#ffffff"
     bordercolor="#000000"
     borderopacity="0.25"
     inkscape:showpageshadow="2"
     inkscape:pageopacity="0.0"
     inkscape:pagecheckerboard="0"
     inkscape:deskcolor="#d1d1d1"
     inkscape:document-units="mm"
     inkscape:zoom="0.76167929"
     inkscape:cx="352.51057"
     inkscape:cy="233.03771"
     inkscape:window-width="1920"
     inkscape:window-height="1111"
     inkscape:window-x="-9"
     inkscape:window-y="-9"
     inkscape:window-maximized="1"
     inkscape:current-layer="layer1" />
  <defs
     id="defs1" />
  <g
     inkscape:label="Layer 1"
     inkscape:groupmode="layer"
     id="layer1"
     transform="translate(-11.906248,-86.783334)">
    <g
       style="font-style:normal;font-weight:normal;font-size:12px;font-family:Dialog;color-interpolation:linearRGB;fill:#262626;fill-opacity:1;stroke:#262626;stroke-width:5;stroke-linecap:square;stroke-linejoin:round;stroke-miterlimit:10;stroke-dasharray:none;stroke-dashoffset:0;stroke-opacity:1;color-rendering:optimizeQuality;image-rendering:optimizeQuality;shape-rendering:auto;text-rendering:geometricPrecision"
       id="g73"
       transform="matrix(0.26458333,0,0,0.26458333,-18.453746,83.835887)">
      <line
         y2="403"
         style="fill:none"
         x1="200"
         x2="774"
         y1="403"
         id="line68" />
      <line
         y2="408.73999"
         style="fill:none"
         x1="295.66669"
         x2="295.66669"
         y1="403"
         id="line69" />
      <line
         y2="408.73999"
         style="fill:none"
         x1="391.33331"
         x2="391.33331"
         y1="403"
         id="line70" />
      <line
         y2="408.73999"
         style="fill:none"
         x1="487"
         x2="487"
         y1="403"
         id="line71" />
      <line
         y2="408.73999"
         style="fill:none"
         x1="582.66669"
         x2="582.66669"
         y1="403"
         id="line72" />
      <line
         y2="408.73999"
         style="fill:none"
         x1="678.33331"
         x2="678.33331"
         y1="403"
         id="line73" />
    </g>
    <g
       id="g1014"
       transform="matrix(0.26458333,0,0,0.26458333,-19.402554,84.025649)"
       style="font-style:normal;font-weight:normal;font-size:12px;font-family:Dialog;color-interpolation:auto;fill:#000000;fill-opacity:1;stroke:#000000;stroke-width:1;stroke-linecap:square;stroke-linejoin:miter;stroke-miterlimit:10;stroke-dasharray:none;stroke-dashoffset:0;stroke-opacity:1;color-rendering:auto;image-rendering:auto;shape-rendering:auto;text-rendering:auto">
      <g
         transform="translate(287.06018,416.6275)"
         style="font-size:22.7707px;font-family:Calibri;color-interpolation:linearRGB;fill:#262626;stroke:#262626;color-rendering:optimizeQuality;image-rendering:optimizeQuality;text-rendering:geometricPrecision"
         id="g74">
        <text
           x="-15.5"
           xml:space="preserve"
           y="20"
           style="font-style:normal;font-variant:normal;font-weight:normal;font-stretch:normal;font-size:34.6667px;font-family:Calibri;-inkscape-font-specification:'Calibri, Normal';font-variant-ligatures:normal;font-variant-caps:normal;font-variant-numeric:normal;font-variant-east-asian:normal;stroke:none"
           id="text73">-10</text>
      </g>
      <g
         transform="translate(386.31283,416.6275)"
         style="font-size:22.7707px;font-family:Calibri;color-interpolation:linearRGB;fill:#262626;stroke:#262626;color-rendering:optimizeQuality;image-rendering:optimizeQuality;text-rendering:geometricPrecision"
         id="g75">
        <text
           x="-9.5"
           xml:space="preserve"
           y="20"
           style="font-style:normal;font-variant:normal;font-weight:normal;font-stretch:normal;font-size:34.6667px;font-family:Calibri;-inkscape-font-specification:'Calibri, Normal';font-variant-ligatures:normal;font-variant-caps:normal;font-variant-numeric:normal;font-variant-east-asian:normal;stroke:none"
           id="text74">-5</text>
      </g>
      <g
         transform="translate(487,416.6275)"
         style="font-size:22.7707px;font-family:Calibri;color-interpolation:linearRGB;fill:#262626;stroke:#262626;color-rendering:optimizeQuality;image-rendering:optimizeQuality;text-rendering:geometricPrecision"
         id="g76">
        <text
           x="-6"
           xml:space="preserve"
           y="20"
           style="font-style:normal;font-variant:normal;font-weight:normal;font-stretch:normal;font-size:34.6667px;font-family:Calibri;-inkscape-font-specification:'Calibri, Normal';font-variant-ligatures:normal;font-variant-caps:normal;font-variant-numeric:normal;font-variant-east-asian:normal;stroke:none"
           id="text75">0</text>
      </g>
      <g
         transform="translate(582.6667,416.6275)"
         style="font-size:22.7707px;font-family:Calibri;color-interpolation:linearRGB;fill:#262626;stroke:#262626;color-rendering:optimizeQuality;image-rendering:optimizeQuality;text-rendering:geometricPrecision"
         id="g77">
        <text
           x="-6"
           xml:space="preserve"
           y="20"
           style="font-style:normal;font-variant:normal;font-weight:normal;font-stretch:normal;font-size:34.6667px;font-family:Calibri;-inkscape-font-specification:'Calibri, Normal';font-variant-ligatures:normal;font-variant-caps:normal;font-variant-numeric:normal;font-variant-east-asian:normal;stroke:none"
           id="text76">5</text>
      </g>
      <g
         transform="translate(678.3333,416.6275)"
         style="font-size:22.7707px;font-family:Calibri;color-interpolation:linearRGB;fill:#262626;stroke:#262626;color-rendering:optimizeQuality;image-rendering:optimizeQuality;text-rendering:geometricPrecision"
         id="g78">
        <text
           x="-12"
           xml:space="preserve"
           y="20"
           style="font-style:normal;font-variant:normal;font-weight:normal;font-stretch:normal;font-size:34.6667px;font-family:Calibri;-inkscape-font-specification:'Calibri, Normal';font-variant-ligatures:normal;font-variant-caps:normal;font-variant-numeric:normal;font-variant-east-asian:normal;stroke:none"
           id="text77">10</text>
      </g>
      <g
         transform="translate(487.0003,448.2941)"
         style="font-size:25.0477px;font-family:Calibri;color-interpolation:linearRGB;fill:#262626;stroke:#262626;color-rendering:optimizeQuality;image-rendering:optimizeQuality;text-rendering:geometricPrecision"
         id="g79">
        <text
           x="-32.5"
           xml:space="preserve"
           y="22"
           style="font-style:normal;font-variant:normal;font-weight:normal;font-stretch:normal;font-size:34.6667px;font-family:Calibri;-inkscape-font-specification:'Calibri, Normal';font-variant-ligatures:normal;font-variant-caps:normal;font-variant-numeric:normal;font-variant-east-asian:normal;stroke:none"
           id="text78">X (cm)</text>
      </g>
    </g>
    <g
       style="font-style:normal;font-weight:normal;font-size:12px;font-family:Dialog;color-interpolation:linearRGB;fill:#262626;fill-opacity:1;stroke:#262626;stroke-width:5;stroke-linecap:square;stroke-linejoin:round;stroke-miterlimit:10;stroke-dasharray:none;stroke-dashoffset:0;stroke-opacity:1;color-rendering:optimizeQuality;image-rendering:optimizeQuality;shape-rendering:auto;text-rendering:geometricPrecision"
       id="g84"
       transform="matrix(0.26458333,0,0,0.26458333,-18.453746,83.835887)">
      <line
         y2="47"
         style="fill:none"
         x1="200"
         x2="200"
         y1="403"
         id="line79" />
      <line
         y2="367.39999"
         style="fill:none"
         x1="200"
         x2="194.25999"
         y1="367.39999"
         id="line80" />
      <line
         y2="296.20001"
         style="fill:none"
         x1="200"
         x2="194.25999"
         y1="296.20001"
         id="line81" />
      <line
         y2="225"
         style="fill:none"
         x1="200"
         x2="194.25999"
         y1="225"
         id="line82" />
      <line
         y2="153.8"
         style="fill:none"
         x1="200"
         x2="194.25999"
         y1="153.8"
         id="line83" />
      <line
         y2="82.599998"
         style="fill:none"
         x1="200"
         x2="194.25999"
         y1="82.599998"
         id="line84" />
    </g>
    <g
       id="g1015"
       transform="matrix(0.26458333,0,0,0.26458333,-20.730885,85.543742)"
       style="font-style:normal;font-weight:normal;font-size:12px;font-family:Dialog;color-interpolation:auto;fill:#000000;fill-opacity:1;stroke:#000000;stroke-width:1;stroke-linecap:square;stroke-linejoin:miter;stroke-miterlimit:10;stroke-dasharray:none;stroke-dashoffset:0;stroke-opacity:1;color-rendering:auto;image-rendering:auto;shape-rendering:auto;text-rendering:auto">
      <g
         transform="translate(186.3725,367.4)"
         style="font-size:22.7707px;font-family:Calibri;color-interpolation:linearRGB;fill:#262626;stroke:#262626;color-rendering:optimizeQuality;image-rendering:optimizeQuality;text-rendering:geometricPrecision"
         id="g85">
        <text
           x="-24"
           xml:space="preserve"
           y="5"
           style="font-style:normal;font-variant:normal;font-weight:normal;font-stretch:normal;font-size:34.6667px;font-family:Calibri;-inkscape-font-specification:'Calibri, Normal';font-variant-ligatures:normal;font-variant-caps:normal;font-variant-numeric:normal;font-variant-east-asian:normal;stroke:none"
           id="text84">10</text>
      </g>
      <g
         transform="translate(186.3725,296.2)"
         style="font-size:22.7707px;font-family:Calibri;color-interpolation:linearRGB;fill:#262626;stroke:#262626;color-rendering:optimizeQuality;image-rendering:optimizeQuality;text-rendering:geometricPrecision"
         id="g86">
        <text
           x="-24"
           xml:space="preserve"
           y="5"
           style="font-style:normal;font-variant:normal;font-weight:normal;font-stretch:normal;font-size:34.6667px;font-family:Calibri;-inkscape-font-specification:'Calibri, Normal';font-variant-ligatures:normal;font-variant-caps:normal;font-variant-numeric:normal;font-variant-east-asian:normal;stroke:none"
           id="text85">30</text>
      </g>
      <g
         transform="translate(186.3725,225)"
         style="font-size:22.7707px;font-family:Calibri;color-interpolation:linearRGB;fill:#262626;stroke:#262626;color-rendering:optimizeQuality;image-rendering:optimizeQuality;text-rendering:geometricPrecision"
         id="g87">
        <text
           x="-24"
           xml:space="preserve"
           y="5"
           style="font-style:normal;font-variant:normal;font-weight:normal;font-stretch:normal;font-size:34.6667px;font-family:Calibri;-inkscape-font-specification:'Calibri, Normal';font-variant-ligatures:normal;font-variant-caps:normal;font-variant-numeric:normal;font-variant-east-asian:normal;stroke:none"
           id="text86">50</text>
      </g>
      <g
         transform="translate(186.3725,153.8)"
         style="font-size:22.7707px;font-family:Calibri;color-interpolation:linearRGB;fill:#262626;stroke:#262626;color-rendering:optimizeQuality;image-rendering:optimizeQuality;text-rendering:geometricPrecision"
         id="g88">
        <text
           x="-24"
           xml:space="preserve"
           y="5"
           style="font-style:normal;font-variant:normal;font-weight:normal;font-stretch:normal;font-size:34.6667px;font-family:Calibri;-inkscape-font-specification:'Calibri, Normal';font-variant-ligatures:normal;font-variant-caps:normal;font-variant-numeric:normal;font-variant-east-asian:normal;stroke:none"
           id="text87">70</text>
      </g>
      <g
         transform="translate(186.3725,82.6)"
         style="font-size:22.7707px;font-family:Calibri;color-interpolation:linearRGB;fill:#262626;stroke:#262626;color-rendering:optimizeQuality;image-rendering:optimizeQuality;text-rendering:geometricPrecision"
         id="g89">
        <text
           x="-24"
           xml:space="preserve"
           y="5"
           style="font-style:normal;font-variant:normal;font-weight:normal;font-stretch:normal;font-size:34.6667px;font-family:Calibri;-inkscape-font-specification:'Calibri, Normal';font-variant-ligatures:normal;font-variant-caps:normal;font-variant-numeric:normal;font-variant-east-asian:normal;stroke:none"
           id="text88">90</text>
      </g>
      <g
         transform="rotate(-90,191.18615,33.81365)"
         style="font-size:25.0477px;font-family:Calibri;color-interpolation:linearRGB;fill:#262626;stroke:#262626;color-rendering:optimizeQuality;image-rendering:optimizeQuality;text-rendering:geometricPrecision"
         id="g90">
        <text
           x="-89.5"
           xml:space="preserve"
           y="-10"
           style="font-style:normal;font-variant:normal;font-weight:normal;font-stretch:normal;font-size:34.6667px;font-family:Calibri;-inkscape-font-specification:'Calibri, Normal';font-variant-ligatures:normal;font-variant-caps:normal;font-variant-numeric:normal;font-variant-east-asian:normal;stroke:none"
           id="text89">Path Traveled (%)</text>
      </g>
    </g>
    <g
       transform="matrix(0.26458333,0,0,0.26458333,103.94657,95.277211)"
       style="font-style:normal;font-weight:bold;font-size:25.0477px;font-family:Calibri;color-interpolation:linearRGB;fill:#000000;fill-opacity:1;stroke:#000000;stroke-width:1;stroke-linecap:square;stroke-linejoin:miter;stroke-miterlimit:10;stroke-dasharray:none;stroke-dashoffset:0;stroke-opacity:1;color-rendering:optimizeQuality;image-rendering:optimizeQuality;shape-rendering:auto;text-rendering:geometricPrecision"
       id="g91">
      <text
         x="-98.5"
         xml:space="preserve"
         y="-10"
         style="font-style:normal;font-variant:normal;font-weight:bold;font-stretch:normal;font-size:33.3333px;font-family:Calibri;-inkscape-font-specification:'Calibri, Bold';font-variant-ligatures:normal;font-variant-caps:normal;font-variant-numeric:normal;font-variant-east-asian:normal;stroke:none"
         id="text90">Average Trajectory</text>
    </g>
    <g
       style="font-style:normal;font-weight:normal;font-size:12px;font-family:Dialog;color-interpolation:sRGB;fill:#005ab5;fill-opacity:0.1804;stroke:#005ab5;stroke-width:1;stroke-linecap:square;stroke-linejoin:miter;stroke-miterlimit:10;stroke-dasharray:none;stroke-dashoffset:0;stroke-opacity:0.1804;color-rendering:optimizeSpeed;image-rendering:optimizeSpeed;shape-rendering:crispEdges;text-rendering:optimizeSpeed"
       id="g92"
       transform="matrix(0.26458333,0,0,0.26458333,-18.453746,83.835887)">
      <path
         style="stroke:none"
         d="m 330.1492,75.48 -1.7293,-1.78 -1.4846,-1.78 -1.4076,-1.78 -1.1928,-1.78 -1.0975,-1.78 -1.0323,-1.78 -0.9576,-1.78 -0.896,-1.78 -0.8549,-1.78 -0.8058,-1.78 -0.7577,-1.78 -0.6995,-1.78 -0.6672,-1.78 -0.6396,-1.78 -0.6217,-1.78 -0.5962,-1.78 h -9.8415 l 0.536,1.78 0.5672,1.78 0.5633,1.78 0.5604,1.78 0.5651,1.78 0.5856,1.78 0.6021,1.78 0.6192,1.78 0.6405,1.78 0.6706,1.78 0.7024,1.78 0.7431,1.78 0.7826,1.78 0.9227,1.78 0.949,1.78 1.0564,1.78 1.0845,1.78 1.1097,1.78 1.1575,1.78 1.2183,1.78 1.2718,1.78 1.3287,1.78 1.4553,1.78 1.4632,1.78 1.5972,1.78 1.6447,1.78 1.6636,1.78 1.7238,1.78 1.7223,1.78 1.8716,1.78 1.8569,1.78 1.9121,1.78 1.8701,1.78 1.8723,1.78 1.8821,1.78 1.7452,1.78 1.7932,1.78 1.795,1.78 1.7707,1.78 1.7569,1.78 1.7756,1.78 1.7779,1.78 1.8227,1.78 1.983,1.78 1.9289,1.78 1.881,1.78 1.9448,1.78 1.923,1.78 1.8835,1.78 1.8489,1.78 1.8143,1.78 1.7634,1.78 1.736,1.78 1.7264,1.78 1.6482,1.78 1.6109,1.78 1.6779,1.78 1.5805,1.78 1.5459,1.78 1.5315,1.78 1.5235,1.78 1.5029,1.78 1.5015,1.78 1.4991,1.78 1.4691,1.78 1.456,1.78 1.3695,1.78 1.3302,1.78 1.3117,1.78 1.3456,1.78 1.3256,1.78 1.2776,1.78 1.2148,1.78 1.1846,1.78 1.1752,1.78 1.1459,1.78 1.1427,1.78 1.1179,1.78 1.0826,1.78 1.0769,1.78 1.0474,1.78 1.0264,1.78 1.018,1.78 1.0151,1.78 0.9814,1.78 0.9761,1.78 0.9563,1.78 0.9407,1.78 0.9306,1.78 0.909,1.78 0.8967,1.78 0.888,1.78 0.8712,1.78 0.8538,1.78 0.8537,1.78 0.8336,1.78 0.8176,1.78 0.8207,1.78 0.7841,1.78 0.8018,1.78 0.7832,1.78 0.7735,1.78 0.7453,1.78 0.7562,1.78 0.7292,1.78 0.7267,1.78 0.7128,1.78 0.7093,1.78 0.7046,1.78 0.6893,1.78 0.6833,1.78 0.6628,1.78 0.6671,1.78 0.6403,1.78 0.6526,1.78 0.637,1.78 0.6212,1.78 0.6257,1.78 0.6042,1.78 0.6056,1.78 0.5918,1.78 0.5899,1.78 0.5801,1.78 0.5623,1.78 0.579,1.78 0.5599,1.78 0.543,1.78 0.5543,1.78 0.5295,1.78 0.5327,1.78 0.5242,1.78 0.5158,1.78 0.5123,1.78 0.5052,1.78 0.4907,1.78 0.4946,1.78 0.4906,1.78 0.4836,1.78 0.467,1.78 0.47,1.78 0.468,1.78 0.4534,1.78 0.4581,1.78 0.4465,1.78 0.4355,1.78 0.4463,1.78 0.4293,1.78 0.4269,1.78 0.4264,1.78 0.4175,1.78 0.4129,1.78 0.4071,1.78 0.4082,1.78 0.3972,1.78 0.3942,1.78 0.3951,1.78 0.3926,1.78 0.3799,1.78 0.3851,1.78 0.3781,1.78 0.3683,1.78 0.3738,1.78 0.3662,1.78 0.3657,1.78 0.3639,1.78 0.3574,1.78 0.3646,1.78 0.3503,1.78 0.3519,1.78 0.3543,1.78 0.3606,1.78 0.3455,1.78 0.3554,1.78 0.3518,1.78 0.3499,1.78 0.3567,1.78 0.3502,1.78 0.357,1.78 0.3648,1.78 0.3668,1.78 0.3711,1.78 0.3778,1.78 0.3891,1.78 0.3938,1.78 0.4116,1.78 0.4244,1.78 0.4405,1.78 0.4505,1.78 0.4828,1.78 0.5,1.78 0.5269,1.78 0.5609,1.78 0.6032,1.78 0.6603,1.78 0.6972,1.78 0.7989,1.78 0.9505,1.78 1.2127,1.78 1.7826,1.78 h 0.654 l -1.3752,-1.78 -0.761,-1.78 -0.4841,-1.78 -0.3265,-1.78 -0.2015,-1.78 -0.1373,-1.78 -0.0634,-1.78 -0.003,-1.78 0.0183,-1.78 0.0335,-1.78 0.0481,-1.78 0.0649,-1.78 0.0677,-1.78 0.0702,-1.78 0.0715,-1.78 0.0781,-1.78 0.0778,-1.78 0.0741,-1.78 0.0774,-1.78 0.0732,-1.78 0.0619,-1.78 0.067,-1.78 0.063,-1.78 0.0528,-1.78 0.0589,-1.78 0.0474,-1.78 0.0397,-1.78 0.0417,-1.78 0.0262,-1.78 0.0306,-1.78 0.0234,-1.78 0.0244,-1.78 0.005,-1.78 0.01,-1.78 0.003,-1.78 -0.008,-1.78 -0.0153,-1.78 -0.0236,-1.78 -0.024,-1.78 -0.025,-1.78 -0.0447,-1.78 -0.0391,-1.78 -0.0601,-1.78 -0.0558,-1.78 -0.0719,-1.78 -0.0727,-1.78 -0.0791,-1.78 -0.0947,-1.78 -0.0956,-1.78 -0.0994,-1.78 -0.1218,-1.78 -0.1253,-1.78 -0.1203,-1.78 -0.1452,-1.78 -0.1398,-1.78 -0.1479,-1.78 -0.1684,-1.78 -0.1629,-1.78 -0.1772,-1.78 -0.1984,-1.78 -0.1834,-1.78 -0.202,-1.78 -0.2137,-1.78 -0.2231,-1.78 -0.2238,-1.78 -0.24,-1.78 -0.241,-1.78 -0.2526,-1.78 -0.2678,-1.78 -0.2744,-1.78 -0.2701,-1.78 -0.2935,-1.78 -0.2934,-1.78 -0.3135,-1.78 -0.3221,-1.78 -0.3235,-1.78 -0.334,-1.78 -0.3454,-1.78 -0.3512,-1.78 -0.3709,-1.78 -0.3692,-1.78 -0.392,-1.78 -0.3905,-1.78 -0.4136,-1.78 -0.425,-1.78 -0.4159,-1.78 -0.4472,-1.78 -0.4486,-1.78 -0.4699,-1.78 -0.4816,-1.78 -0.4905,-1.78 -0.5008,-1.78 -0.5084,-1.78 -0.5234,-1.78 -0.5272,-1.78 -0.5608,-1.78 -0.5427,-1.78 -0.5741,-1.78 -0.5774,-1.78 -0.6074,-1.78 -0.5932,-1.78 -0.6316,-1.78 -0.6246,-1.78 -0.6482,-1.78 -0.6581,-1.78 -0.6775,-1.78 -0.6889,-1.78 -0.7091,-1.78 -0.722,-1.78 -0.7328,-1.78 -0.7698,-1.78 -0.7822,-1.78 -0.7949,-1.78 -0.8292,-1.78 -0.8401,-1.78 -0.892,-1.78 -0.9133,-1.78 -0.9108,-1.78 -0.95,-1.78 -0.9749,-1.78 -0.9962,-1.78 -1.0272,-1.78 -1.072,-1.78 -1.0993,-1.78 -1.133,-1.78 -1.1742,-1.78 -1.2044,-1.78 -1.2991,-1.78 -1.3824,-1.78 -1.3914,-1.78 -1.3725,-1.78 -1.4142,-1.78 -1.4766,-1.78 -1.5761,-1.78 -1.6149,-1.78 -1.7417,-1.78 -1.7472,-1.78 -1.7086,-1.78 -1.731,-1.78 -1.7926,-1.78 -1.7886,-1.78 -1.8242,-1.78 -1.8676,-1.78 -1.8514,-1.78 -1.9035,-1.78 -2.0294,-1.78 -1.967,-1.78 -2.0482,-1.78 -2.1383,-1.78 -2.1405,-1.78 -2.2539,-1.78 -2.3974,-1.78 -2.3071,-1.78 -2.235,-1.78 -2.2243,-1.78 -2.2392,-1.78 -2.2038,-1.78 -2.2199,-1.78 -2.2532,-1.78 -2.2825,-1.78 -2.2777,-1.78 -2.3382,-1.78 -2.3204,-1.78 -2.2816,-1.78 -2.444,-1.78 -2.4144,-1.78 -2.4728,-1.78 -2.4798,-1.78 -2.445,-1.78 -2.4788,-1.78 -2.4079,-1.78 -2.4867,-1.78 -2.5059,-1.78 -2.4505,-1.78 -2.3566,-1.78 -2.1752,-1.78 -2.1993,-1.78 -1.9659,-1.78 -1.8815,-1.78 -1.8153,-1.78 -1.7542,-1.78 -1.7345,-1.78 z"
         id="path91" />
    </g>
    <g
       style="font-style:normal;font-weight:normal;font-size:12px;font-family:Dialog;color-interpolation:linearRGB;fill:#005ab5;fill-opacity:1;stroke:#005ab5;stroke-width:6.6667;stroke-linecap:butt;stroke-linejoin:round;stroke-miterlimit:10;stroke-dasharray:none;stroke-dashoffset:0;stroke-opacity:1;color-rendering:optimizeQuality;image-rendering:optimizeQuality;shape-rendering:auto;text-rendering:geometricPrecision"
       id="g93"
       transform="matrix(0.26458333,0,0,0.26458333,-18.453746,83.835887)">
      <path
         d="m 486.3813,401.22 -1.5789,-1.78 -0.9868,-1.78 -0.7174,-1.78 -0.5626,-1.78 -0.4494,-1.78 -0.3988,-1.78 -0.3333,-1.78 -0.282,-1.78 -0.2544,-1.78 -0.2332,-1.78 -0.2173,-1.78 -0.1929,-1.78 -0.1863,-1.78 -0.1771,-1.78 -0.1701,-1.78 -0.1578,-1.78 -0.1557,-1.78 -0.1519,-1.78 -0.1468,-1.78 -0.1468,-1.78 -0.1514,-1.78 -0.145,-1.78 -0.1437,-1.78 -0.1519,-1.78 -0.1455,-1.78 -0.1522,-1.78 -0.1578,-1.78 -0.1519,-1.78 -0.1673,-1.78 -0.1618,-1.78 -0.1642,-1.78 -0.163,-1.78 -0.1798,-1.78 -0.1739,-1.78 -0.1806,-1.78 -0.1867,-1.78 -0.1908,-1.78 -0.1987,-1.78 -0.1962,-1.78 -0.2015,-1.78 -0.2149,-1.78 -0.2095,-1.78 -0.2264,-1.78 -0.2254,-1.78 -0.2331,-1.78 -0.2349,-1.78 -0.2436,-1.78 -0.251,-1.78 -0.2542,-1.78 -0.2585,-1.78 -0.274,-1.78 -0.2762,-1.78 -0.2747,-1.78 -0.2958,-1.78 -0.2877,-1.78 -0.2971,-1.78 -0.3133,-1.78 -0.3081,-1.78 -0.3227,-1.78 -0.3341,-1.78 -0.3253,-1.78 -0.3428,-1.78 -0.3521,-1.78 -0.3588,-1.78 -0.3573,-1.78 -0.3726,-1.78 -0.3766,-1.78 -0.3843,-1.78 -0.3959,-1.78 -0.4036,-1.78 -0.3998,-1.78 -0.4239,-1.78 -0.4182,-1.78 -0.4367,-1.78 -0.4506,-1.78 -0.4429,-1.78 -0.457,-1.78 -0.4676,-1.78 -0.4715,-1.78 -0.4883,-1.78 -0.4867,-1.78 -0.5089,-1.78 -0.5058,-1.78 -0.5253,-1.78 -0.5388,-1.78 -0.5281,-1.78 -0.5572,-1.78 -0.5557,-1.78 -0.5765,-1.78 -0.5855,-1.78 -0.5976,-1.78 -0.605,-1.78 -0.6106,-1.78 -0.625,-1.78 -0.6283,-1.78 -0.6585,-1.78 -0.6439,-1.78 -0.6738,-1.78 -0.6804,-1.78 -0.7046,-1.78 -0.6886,-1.78 -0.7262,-1.78 -0.7211,-1.78 -0.7409,-1.78 -0.7558,-1.78 -0.7657,-1.78 -0.78,-1.78 -0.7986,-1.78 -0.8093,-1.78 -0.8209,-1.78 -0.8502,-1.78 -0.8615,-1.78 -0.8756,-1.78 -0.9026,-1.78 -0.9108,-1.78 -0.9536,-1.78 -0.9656,-1.78 -0.9686,-1.78 -0.9987,-1.78 -1.0259,-1.78 -1.0394,-1.78 -1.0725,-1.78 -1.1074,-1.78 -1.1226,-1.78 -1.1541,-1.78 -1.1794,-1.78 -1.2096,-1.78 -1.2884,-1.78 -1.354,-1.78 -1.3684,-1.78 -1.3422,-1.78 -1.3722,-1.78 -1.423,-1.78 -1.516,-1.78 -1.5421,-1.78 -1.6204,-1.78 -1.6243,-1.78 -1.6058,-1.78 -1.6272,-1.78 -1.662,-1.78 -1.6673,-1.78 -1.7024,-1.78 -1.7727,-1.78 -1.7312,-1.78 -1.7758,-1.78 -1.8779,-1.78 -1.8515,-1.78 -1.9058,-1.78 -1.9763,-1.78 -1.9947,-1.78 -2.0687,-1.78 -2.1602,-1.78 -2.1259,-1.78 -2.0581,-1.78 -2.0765,-1.78 -2.1111,-1.78 -2.0133,-1.78 -1.9989,-1.78 -2.0144,-1.78 -2.0197,-1.78 -2.0242,-1.78 -2.0666,-1.78 -2.0568,-1.78 -2.0134,-1.78 -2.1631,-1.78 -2.1433,-1.78 -2.1715,-1.78 -2.1959,-1.78 -2.151,-1.78 -2.1752,-1.78 -2.0651,-1.78 -2.1052,-1.78 -2.0848,-1.78 -2.0475,-1.78 -1.9769,-1.78 -1.8192,-1.78 -1.8273,-1.78 -1.6474,-1.78 -1.5766,-1.78 -1.5168,-1.78 -1.4558,-1.78 -1.4222,-1.78 -1.4599,-1.78 -1.3928,-1.78 -1.2169,-1.78 -1.1651,-1.78 -0.9877,-1.78 -0.9203,-1.78 -0.8673,-1.78 -0.8142,-1.78 -0.7682,-1.78 -0.737,-1.78 -0.704,-1.78 -0.6717,-1.78 -0.6322,-1.78 -0.6139,-1.78 -0.6014,-1.78 -0.5944,-1.78 -0.5661,-1.78"
         style="fill:none;fill-rule:evenodd"
         id="path92" />
    </g>
    <g
       style="font-style:normal;font-weight:normal;font-size:12px;font-family:Dialog;color-interpolation:sRGB;fill:#005ab5;fill-opacity:0.1804;stroke:#005ab5;stroke-width:1;stroke-linecap:square;stroke-linejoin:miter;stroke-miterlimit:10;stroke-dasharray:none;stroke-dashoffset:0;stroke-opacity:0.1804;color-rendering:optimizeSpeed;image-rendering:optimizeSpeed;shape-rendering:crispEdges;text-rendering:optimizeSpeed"
       id="g94"
       transform="matrix(0.26458333,0,0,0.26458333,-18.453746,83.835887)">
      <path
         style="stroke:none"
         d="m 484.8258,397.66 -0.3982,-1.78 -0.2249,-1.78 -0.0939,-1.78 0.036,-1.78 0.1,-1.78 0.1721,-1.78 0.2098,-1.78 0.2369,-1.78 0.2681,-1.78 0.2924,-1.78 0.3097,-1.78 0.326,-1.78 0.3443,-1.78 0.3472,-1.78 0.3665,-1.78 0.3735,-1.78 0.3792,-1.78 0.3888,-1.78 0.3977,-1.78 0.4019,-1.78 0.4052,-1.78 0.4148,-1.78 0.4184,-1.78 0.4221,-1.78 0.4306,-1.78 0.4316,-1.78 0.4365,-1.78 0.4484,-1.78 0.4418,-1.78 0.4495,-1.78 0.4559,-1.78 0.4579,-1.78 0.4657,-1.78 0.4649,-1.78 0.4698,-1.78 0.4798,-1.78 0.4711,-1.78 0.4868,-1.78 0.4875,-1.78 0.4859,-1.78 0.4964,-1.78 0.5047,-1.78 0.5011,-1.78 0.5109,-1.78 0.513,-1.78 0.5217,-1.78 0.5228,-1.78 0.5265,-1.78 0.5288,-1.78 0.5377,-1.78 0.537,-1.78 0.5537,-1.78 0.5563,-1.78 0.5521,-1.78 0.5724,-1.78 0.5636,-1.78 0.5885,-1.78 0.5861,-1.78 0.5864,-1.78 0.6075,-1.78 0.5927,-1.78 0.6198,-1.78 0.6141,-1.78 0.625,-1.78 0.6261,-1.78 0.6408,-1.78 0.6407,-1.78 0.6542,-1.78 0.657,-1.78 0.6709,-1.78 0.6698,-1.78 0.6796,-1.78 0.6858,-1.78 0.6996,-1.78 0.6961,-1.78 0.7134,-1.78 0.7125,-1.78 0.7252,-1.78 0.7357,-1.78 0.7406,-1.78 0.7431,-1.78 0.7498,-1.78 0.7665,-1.78 0.7738,-1.78 0.7804,-1.78 0.7701,-1.78 0.7982,-1.78 0.7953,-1.78 0.8132,-1.78 0.8145,-1.78 0.8224,-1.78 0.825,-1.78 0.8426,-1.78 0.8435,-1.78 0.8599,-1.78 0.8617,-1.78 0.8682,-1.78 0.875,-1.78 0.8836,-1.78 0.8908,-1.78 0.8922,-1.78 0.9069,-1.78 0.9102,-1.78 0.9252,-1.78 0.9252,-1.78 0.9405,-1.78 0.9399,-1.78 0.9559,-1.78 0.9512,-1.78 0.9729,-1.78 0.9721,-1.78 0.9776,-1.78 0.998,-1.78 0.988,-1.78 1.0061,-1.78 1.0163,-1.78 1.0249,-1.78 1.0206,-1.78 1.041,-1.78 1.0435,-1.78 1.0491,-1.78 1.0617,-1.78 1.0658,-1.78 1.0685,-1.78 1.0947,-1.78 1.0875,-1.78 1.1014,-1.78 1.1104,-1.78 1.1175,-1.78 1.1332,-1.78 1.1348,-1.78 1.1603,-1.78 1.1849,-1.78 1.2031,-1.78 1.219,-1.78 1.218,-1.78 1.2401,-1.78 1.2758,-1.78 1.2825,-1.78 1.286,-1.78 1.2839,-1.78 1.3037,-1.78 1.3368,-1.78 1.3729,-1.78 1.3735,-1.78 1.3956,-1.78 1.4225,-1.78 1.4615,-1.78 1.4747,-1.78 1.4828,-1.78 1.5119,-1.78 1.5068,-1.78 1.5245,-1.78 1.5286,-1.78 1.5564,-1.78 1.6251,-1.78 1.5682,-1.78 1.6595,-1.78 1.6172,-1.78 1.6113,-1.78 1.6277,-1.78 1.6562,-1.78 1.6937,-1.78 1.726,-1.78 1.7446,-1.78 1.7418,-1.78 1.7582,-1.78 1.777,-1.78 1.8597,-1.78 1.832,-1.78 1.8915,-1.78 1.8576,-1.78 1.8612,-1.78 1.8847,-1.78 1.8957,-1.78 1.9074,-1.78 1.9407,-1.78 1.9757,-1.78 2.0283,-1.78 2.0277,-1.78 2.0366,-1.78 2.0583,-1.78 2.0862,-1.78 2.0702,-1.78 2.0429,-1.78 2.0399,-1.78 2.0316,-1.78 2.0802,-1.78 2.062,-1.78 2.0268,-1.78 2.0139,-1.78 2.0141,-1.78 2.0232,-1.78 2.019,-1.78 2.0516,-1.78 2.081,-1.78 L 682.1,47 h -9.4736 l -1.7379,1.78 -2.0503,1.78 -2.0824,1.78 -2.0936,1.78 -2.1382,1.78 -2.2014,1.78 -2.2444,1.78 -2.2636,1.78 -2.3233,1.78 -2.3515,1.78 -2.2984,1.78 -2.3067,1.78 -2.3134,1.78 -2.306,1.78 -2.3093,1.78 -2.3186,1.78 -2.2968,1.78 -2.3018,1.78 -2.3114,1.78 -2.2879,1.78 -2.2597,1.78 -2.2462,1.78 -2.227,1.78 -2.2297,1.78 -2.23,1.78 -2.1681,1.78 -2.1802,1.78 -2.1492,1.78 -2.2351,1.78 -2.0885,1.78 -2.0568,1.78 -2.0805,1.78 -2.0646,1.78 -2.0612,1.78 -1.9554,1.78 -1.8997,1.78 -1.8913,1.78 -1.8248,1.78 -1.8261,1.78 -1.8272,1.78 -1.7288,1.78 -1.7594,1.78 -1.7058,1.78 -1.6891,1.78 -1.6717,1.78 -1.6611,1.78 -1.6532,1.78 -1.6381,1.78 -1.6317,1.78 -1.6364,1.78 -1.5816,1.78 -1.5486,1.78 -1.5143,1.78 -1.5054,1.78 -1.4653,1.78 -1.4318,1.78 -1.4009,1.78 -1.3954,1.78 -1.3934,1.78 -1.3721,1.78 -1.3318,1.78 -1.3147,1.78 -1.3172,1.78 -1.3072,1.78 -1.2671,1.78 -1.234,1.78 -1.2094,1.78 -1.2026,1.78 -1.1908,1.78 -1.1788,1.78 -1.1739,1.78 -1.1531,1.78 -1.1549,1.78 -1.1278,1.78 -1.1305,1.78 -1.1269,1.78 -1.1011,1.78 -1.0973,1.78 -1.0959,1.78 -1.0722,1.78 -1.0747,1.78 -1.0623,1.78 -1.043,1.78 -1.0307,1.78 -1.0319,1.78 -1.0134,1.78 -1.0025,1.78 -0.9991,1.78 -0.9747,1.78 -0.9801,1.78 -0.9566,1.78 -0.9544,1.78 -0.9424,1.78 -0.9362,1.78 -0.914,1.78 -0.9073,1.78 -0.8914,1.78 -0.8866,1.78 -0.8731,1.78 -0.865,1.78 -0.856,1.78 -0.84,1.78 -0.8414,1.78 -0.814,1.78 -0.8166,1.78 -0.7896,1.78 -0.7885,1.78 -0.7716,1.78 -0.7694,1.78 -0.7502,1.78 -0.7447,1.78 -0.7228,1.78 -0.7228,1.78 -0.7086,1.78 -0.6967,1.78 -0.6875,1.78 -0.666,1.78 -0.6664,1.78 -0.6526,1.78 -0.6361,1.78 -0.6277,1.78 -0.619,1.78 -0.5979,1.78 -0.5954,1.78 -0.5763,1.78 -0.569,1.78 -0.5562,1.78 -0.5519,1.78 -0.5357,1.78 -0.5223,1.78 -0.5083,1.78 -0.5051,1.78 -0.4869,1.78 -0.4732,1.78 -0.4684,1.78 -0.4653,1.78 -0.4286,1.78 -0.4448,1.78 -0.4174,1.78 -0.4153,1.78 -0.4079,1.78 -0.3828,1.78 -0.3825,1.78 -0.363,1.78 -0.3546,1.78 -0.3531,1.78 -0.3326,1.78 -0.3246,1.78 -0.3082,1.78 -0.2874,1.78 -0.3043,1.78 -0.2927,1.78 -0.2806,1.78 -0.2715,1.78 -0.2617,1.78 -0.2515,1.78 -0.2458,1.78 -0.2276,1.78 -0.2263,1.78 -0.2168,1.78 -0.2006,1.78 -0.1969,1.78 -0.1814,1.78 -0.1787,1.78 -0.1684,1.78 -0.152,1.78 -0.1436,1.78 -0.1376,1.78 -0.1218,1.78 -0.1181,1.78 -0.1024,1.78 -0.0917,1.78 -0.0803,1.78 -0.0677,1.78 -0.0555,1.78 -0.049,1.78 -0.0296,1.78 -0.0202,1.78 -0.008,1.78 0.0106,1.78 0.0251,1.78 0.0444,1.78 0.0516,1.78 0.0787,1.78 0.0965,1.78 0.1172,1.78 0.1455,1.78 0.1723,1.78 0.2029,1.78 0.2443,1.78 0.2728,1.78 0.3265,1.78 0.3771,1.78 0.4427,1.78 0.5415,1.78 0.6357,1.78 0.8006,1.78 1.1072,1.78 1.8011,1.78 h 0.7177 l -1.297,-1.78 z"
         id="path93" />
    </g>
    <g
       style="font-style:normal;font-weight:normal;font-size:12px;font-family:Dialog;color-interpolation:linearRGB;fill:#005ab5;fill-opacity:1;stroke:#005ab5;stroke-width:6.6667;stroke-linecap:butt;stroke-linejoin:round;stroke-miterlimit:10;stroke-dasharray:none;stroke-dashoffset:0;stroke-opacity:1;color-rendering:optimizeQuality;image-rendering:optimizeQuality;shape-rendering:auto;text-rendering:geometricPrecision"
       id="g95"
       transform="matrix(0.26458333,0,0,0.26458333,-18.453746,83.835887)">
      <path
         d="m 486.4456,401.22 -1.5491,-1.78 -0.8944,-1.78 -0.5994,-1.78 -0.4303,-1.78 -0.3177,-1.78 -0.2033,-1.78 -0.1386,-1.78 -0.0772,-1.78 -0.0315,-1.78 -0.004,-1.78 0.0326,-1.78 0.0601,-1.78 0.082,-1.78 0.1045,-1.78 0.1238,-1.78 0.1342,-1.78 0.1576,-1.78 0.1645,-1.78 0.1771,-1.78 0.189,-1.78 0.2029,-1.78 0.211,-1.78 0.2174,-1.78 0.2319,-1.78 0.2369,-1.78 0.2449,-1.78 0.2555,-1.78 0.2617,-1.78 0.2694,-1.78 0.2832,-1.78 0.2819,-1.78 0.2935,-1.78 0.2997,-1.78 0.305,-1.78 0.3171,-1.78 0.3217,-1.78 0.3257,-1.78 0.3383,-1.78 0.3358,-1.78 0.3518,-1.78 0.357,-1.78 0.3567,-1.78 0.3711,-1.78 0.3781,-1.78 0.3814,-1.78 0.3912,-1.78 0.3968,-1.78 0.4072,-1.78 0.4136,-1.78 0.4069,-1.78 0.4185,-1.78 0.4312,-1.78 0.4347,-1.78 0.4534,-1.78 0.4555,-1.78 0.4576,-1.78 0.4774,-1.78 0.4732,-1.78 0.4983,-1.78 0.5006,-1.78 0.5019,-1.78 0.5261,-1.78 0.5107,-1.78 0.5425,-1.78 0.5413,-1.78 0.5491,-1.78 0.5565,-1.78 0.5729,-1.78 0.5746,-1.78 0.5882,-1.78 0.5963,-1.78 0.6114,-1.78 0.6131,-1.78 0.6242,-1.78 0.6311,-1.78 0.6475,-1.78 0.647,-1.78 0.6662,-1.78 0.6701,-1.78 0.6806,-1.78 0.6942,-1.78 0.7035,-1.78 0.7045,-1.78 0.7187,-1.78 0.7316,-1.78 0.7412,-1.78 0.7516,-1.78 0.7465,-1.78 0.7714,-1.78 0.7727,-1.78 0.7914,-1.78 0.793,-1.78 0.8054,-1.78 0.8073,-1.78 0.8296,-1.78 0.8288,-1.78 0.8506,-1.78 0.8509,-1.78 0.8621,-1.78 0.87,-1.78 0.8783,-1.78 0.8887,-1.78 0.8918,-1.78 0.9071,-1.78 0.9121,-1.78 0.9308,-1.78 0.9337,-1.78 0.9474,-1.78 0.9483,-1.78 0.9681,-1.78 0.9629,-1.78 0.986,-1.78 0.9873,-1.78 0.9955,-1.78 1.015,-1.78 1.0093,-1.78 1.0245,-1.78 1.0394,-1.78 1.0498,-1.78 1.0463,-1.78 1.0685,-1.78 1.0705,-1.78 1.075,-1.78 1.0943,-1.78 1.0981,-1.78 1.0982,-1.78 1.1248,-1.78 1.1203,-1.78 1.1377,-1.78 1.1446,-1.78 1.1541,-1.78 1.1679,-1.78 1.1721,-1.78 1.1971,-1.78 1.2261,-1.78 1.255,-1.78 1.2682,-1.78 1.2664,-1.78 1.2859,-1.78 1.324,-1.78 1.3379,-1.78 1.3407,-1.78 1.3424,-1.78 1.3677,-1.78 1.4011,-1.78 1.4391,-1.78 1.4439,-1.78 1.4722,-1.78 1.502,-1.78 1.549,-1.78 1.5531,-1.78 1.5605,-1.78 1.5825,-1.78 1.584,-1.78 1.5981,-1.78 1.6088,-1.78 1.6311,-1.78 1.6924,-1.78 1.6483,-1.78 1.7435,-1.78 1.7216,-1.78 1.718,-1.78 1.7595,-1.78 1.778,-1.78 1.8245,-1.78 1.8937,-1.78 1.9046,-1.78 1.9112,-1.78 1.9074,-1.78 1.9328,-1.78 2.0473,-1.78 1.9907,-1.78 2.0358,-1.78 2.0128,-1.78 2.0456,-1.78 2.0572,-1.78 2.0614,-1.78 2.0768,-1.78 2.1002,-1.78 2.1318,-1.78 2.1699,-1.78 2.1647,-1.78 2.1667,-1.78 2.1885,-1.78 2.1978,-1.78 2.188,-1.78 2.1781,-1.78 2.1733,-1.78 2.165,-1.78 2.2159,-1.78 2.1926,-1.78 2.1453,-1.78 2.1292,-1.78 2.1077,-1.78 2.0807,-1.78 2.0563,-1.78 2.067,-1.78 2.0656,-1.78 1.7828,-1.78"
         style="fill:none;fill-rule:evenodd"
         id="path94" />
    </g>
    <g
       style="font-style:normal;font-weight:normal;font-size:12px;font-family:Dialog;color-interpolation:sRGB;fill:#dc3220;fill-opacity:0.1804;stroke:#dc3220;stroke-width:1;stroke-linecap:square;stroke-linejoin:miter;stroke-miterlimit:10;stroke-dasharray:none;stroke-dashoffset:0;stroke-opacity:0.1804;color-rendering:optimizeSpeed;image-rendering:optimizeSpeed;shape-rendering:crispEdges;text-rendering:optimizeSpeed"
       id="g96"
       transform="matrix(0.26458333,0,0,0.26458333,-18.453746,83.835887)">
      <path
         style="stroke:none"
         d="m 309.7,63.02 0.8614,1.78 0.8507,1.78 0.8704,1.78 0.9118,1.78 0.9687,1.78 1.0423,1.78 1.1052,1.78 1.1777,1.78 1.2537,1.78 1.3573,1.78 1.459,1.78 1.6324,1.78 1.703,1.78 1.6458,1.78 1.7125,1.78 1.8004,1.78 1.9571,1.78 2.0051,1.78 2.1336,1.78 2.2308,1.78 2.1571,1.78 2.1574,1.78 2.2651,1.78 2.3093,1.78 2.4622,1.78 2.498,1.78 2.4163,1.78 2.427,1.78 2.3062,1.78 2.243,1.78 2.2143,1.78 2.2098,1.78 2.4006,1.78 2.2721,1.78 2.3252,1.78 2.2315,1.78 2.1444,1.78 2.0911,1.78 2.1339,1.78 2.183,1.78 2.1644,1.78 2.1587,1.78 2.1836,1.78 2.1646,1.78 2.1239,1.78 2.2267,1.78 2.0813,1.78 2.0562,1.78 1.9712,1.78 1.8822,1.78 1.835,1.78 1.8587,1.78 1.8528,1.78 1.781,1.78 1.71,1.78 1.7436,1.78 1.6042,1.78 1.5748,1.78 1.5225,1.78 1.4827,1.78 1.5003,1.78 1.4595,1.78 1.4422,1.78 1.4472,1.78 1.3881,1.78 1.3575,1.78 1.2998,1.78 1.2002,1.78 1.1537,1.78 1.1032,1.78 1.0591,1.78 1.0459,1.78 1.0045,1.78 0.9795,1.78 0.9556,1.78 0.9144,1.78 0.9201,1.78 0.8859,1.78 0.863,1.78 0.8369,1.78 0.8174,1.78 0.8061,1.78 0.7907,1.78 0.765,1.78 0.7503,1.78 0.7324,1.78 0.7024,1.78 0.7045,1.78 0.6799,1.78 0.6554,1.78 0.6645,1.78 0.6297,1.78 0.6269,1.78 0.6019,1.78 0.5853,1.78 0.5712,1.78 0.5719,1.78 0.5501,1.78 0.5263,1.78 0.5255,1.78 0.5237,1.78 0.486,1.78 0.483,1.78 0.4595,1.78 0.4574,1.78 0.4507,1.78 0.4459,1.78 0.4276,1.78 0.4072,1.78 0.406,1.78 0.3961,1.78 0.3878,1.78 0.3805,1.78 0.3691,1.78 0.3502,1.78 0.3549,1.78 0.3404,1.78 0.342,1.78 0.3157,1.78 0.3183,1.78 0.2998,1.78 0.3171,1.78 0.3027,1.78 0.2813,1.78 0.3039,1.78 0.2703,1.78 0.2711,1.78 0.2485,1.78 0.2594,1.78 0.2483,1.78 0.2482,1.78 0.2406,1.78 0.2418,1.78 0.2307,1.78 0.2342,1.78 0.2384,1.78 0.2451,1.78 0.2005,1.78 0.2155,1.78 0.1929,1.78 0.1958,1.78 0.1918,1.78 0.1914,1.78 0.1789,1.78 0.1802,1.78 0.1651,1.78 0.1884,1.78 0.1795,1.78 0.1662,1.78 0.1732,1.78 0.167,1.78 0.1647,1.78 0.1712,1.78 0.1612,1.78 0.165,1.78 0.1683,1.78 0.1613,1.78 0.1672,1.78 0.1688,1.78 0.1785,1.78 0.1709,1.78 0.1793,1.78 0.1847,1.78 0.1843,1.78 0.172,1.78 0.1879,1.78 0.1933,1.78 0.1856,1.78 0.1994,1.78 0.202,1.78 0.2069,1.78 0.226,1.78 0.2229,1.78 0.2339,1.78 0.2355,1.78 0.2515,1.78 0.2653,1.78 0.2771,1.78 0.2931,1.78 0.3141,1.78 0.341,1.78 0.3568,1.78 0.3939,1.78 0.4454,1.78 0.5135,1.78 0.5403,1.78 0.6706,1.78 0.8773,1.78 1.1784,1.78 1.7931,1.78 h 0.6431 l -1.3408,-1.78 -0.69,-1.78 -0.4241,-1.78 -0.2352,-1.78 -0.1028,-1.78 -0.0412,-1.78 0.0184,-1.78 0.0583,-1.78 0.0848,-1.78 0.0948,-1.78 0.1179,-1.78 0.1337,-1.78 0.1385,-1.78 0.1487,-1.78 0.1588,-1.78 0.1571,-1.78 0.1641,-1.78 0.1621,-1.78 0.1637,-1.78 0.1709,-1.78 0.1604,-1.78 0.1628,-1.78 0.1634,-1.78 0.1646,-1.78 0.1528,-1.78 0.164,-1.78 0.1478,-1.78 0.1469,-1.78 0.1492,-1.78 0.1435,-1.78 0.138,-1.78 0.1412,-1.78 0.1408,-1.78 0.1306,-1.78 0.1342,-1.78 0.1184,-1.78 0.1225,-1.78 0.1147,-1.78 0.1122,-1.78 0.1044,-1.78 0.1014,-1.78 0.097,-1.78 0.0803,-1.78 0.0697,-1.78 0.0781,-1.78 0.0719,-1.78 0.0627,-1.78 0.0501,-1.78 0.0515,-1.78 0.0352,-1.78 0.0372,-1.78 0.0258,-1.78 0.029,-1.78 0.0116,-1.78 0.003,-1.78 -0.009,-1.78 0.0109,-1.78 -0.0193,-1.78 -0.0156,-1.78 -0.0211,-1.78 -0.0293,-1.78 -0.0364,-1.78 -0.0352,-1.78 -0.0484,-1.78 -0.0601,-1.78 -0.0713,-1.78 -0.0594,-1.78 -0.0815,-1.78 -0.1012,-1.78 -0.0794,-1.78 -0.0981,-1.78 -0.0985,-1.78 -0.1163,-1.78 -0.122,-1.78 -0.1339,-1.78 -0.1406,-1.78 -0.1402,-1.78 -0.1683,-1.78 -0.1577,-1.78 -0.1734,-1.78 -0.1878,-1.78 -0.1824,-1.78 -0.1977,-1.78 -0.2229,-1.78 -0.2228,-1.78 -0.2339,-1.78 -0.2276,-1.78 -0.2481,-1.78 -0.2536,-1.78 -0.2958,-1.78 -0.2917,-1.78 -0.2971,-1.78 -0.3105,-1.78 -0.3277,-1.78 -0.3375,-1.78 -0.3459,-1.78 -0.3636,-1.78 -0.3746,-1.78 -0.3956,-1.78 -0.4149,-1.78 -0.4117,-1.78 -0.4357,-1.78 -0.4469,-1.78 -0.4514,-1.78 -0.4893,-1.78 -0.4964,-1.78 -0.5131,-1.78 -0.5349,-1.78 -0.5603,-1.78 -0.5576,-1.78 -0.59,-1.78 -0.6193,-1.78 -0.65,-1.78 -0.6829,-1.78 -0.682,-1.78 -0.7182,-1.78 -0.7313,-1.78 -0.7748,-1.78 -0.8194,-1.78 -0.8519,-1.78 -0.8939,-1.78 -0.9917,-1.78 -1.0119,-1.78 -1.134,-1.78 -1.2053,-1.78 -1.3117,-1.78 -1.3644,-1.78 -1.3219,-1.78 -1.293,-1.78 -1.329,-1.78 -1.2997,-1.78 -1.354,-1.78 -1.4134,-1.78 -1.4411,-1.78 -1.5761,-1.78 -1.5909,-1.78 -1.6245,-1.78 -1.6488,-1.78 -1.6613,-1.78 -1.713,-1.78 -1.8291,-1.78 -1.9354,-1.78 -2.0163,-1.78 -2.111,-1.78 -2.2121,-1.78 -2.1868,-1.78 -2.2549,-1.78 -2.3663,-1.78 -2.3681,-1.78 -2.3953,-1.78 -2.5356,-1.78 -2.5224,-1.78 -2.4343,-1.78 -2.4709,-1.78 -2.4824,-1.78 -2.59,-1.78 -2.587,-1.78 -2.7141,-1.78 -2.5382,-1.78 -2.5913,-1.78 -2.6743,-1.78 -2.876,-1.78 -3.0243,-1.78 -3.0168,-1.78 -3.0932,-1.78 -3.0386,-1.78 -2.9797,-1.78 -2.9709,-1.78 -2.8917,-1.78 -2.9352,-1.78 -3.0995,-1.78 -3.0675,-1.78 -2.9051,-1.78 -2.9363,-1.78 -2.8903,-1.78 -2.9285,-1.78 -2.8338,-1.78 -2.7875,-1.78 -2.6391,-1.78 -2.3447,-1.78 -2.1546,-1.78 -1.9761,-1.78 -1.848,-1.78 -1.7066,-1.78 -1.5971,-1.78 -1.4599,-1.78 -1.4033,-1.78 -1.3291,-1.78 -1.2658,-1.78 -1.2683,-1.78 -1.0839,-1.78 -0.9874,-1.78 -0.9907,-1.78 -0.8758,-1.78 -0.8101,-1.78 -0.7919,-1.78 -0.7456,-1.78 -0.7367,-1.78 L 313.55,47 h -10.1743 l 0.6116,1.78 0.6641,1.78 0.6531,1.78 0.6651,1.78 0.6748,1.78 0.7213,1.78 0.786,1.78 0.7494,1.78 z"
         id="path95" />
    </g>
    <g
       style="font-style:normal;font-weight:normal;font-size:12px;font-family:Dialog;color-interpolation:linearRGB;fill:#dc3220;fill-opacity:1;stroke:#dc3220;stroke-width:6.6667;stroke-linecap:butt;stroke-linejoin:round;stroke-miterlimit:10;stroke-dasharray:none;stroke-dashoffset:0;stroke-opacity:1;color-rendering:optimizeQuality;image-rendering:optimizeQuality;shape-rendering:auto;text-rendering:geometricPrecision"
       id="g97"
       transform="matrix(0.26458333,0,0,0.26458333,-18.453746,83.835887)">
      <path
         d="m 486.3721,401.22 -1.567,-1.78 -0.9342,-1.78 -0.6507,-1.78 -0.4529,-1.78 -0.3216,-1.78 -0.2773,-1.78 -0.2135,-1.78 -0.1678,-1.78 -0.136,-1.78 -0.1231,-1.78 -0.0981,-1.78 -0.0797,-1.78 -0.0693,-1.78 -0.0583,-1.78 -0.0463,-1.78 -0.0392,-1.78 -0.035,-1.78 -0.0304,-1.78 -0.0311,-1.78 -0.018,-1.78 -0.0208,-1.78 -0.0183,-1.78 -0.0111,-1.78 -0.0144,-1.78 -0.0175,-1.78 -0.004,-1.78 -0.0182,-1.78 -0.019,-1.78 -0.015,-1.78 -0.0137,-1.78 -0.0202,-1.78 -0.0139,-1.78 -0.0132,-1.78 -0.0153,-1.78 -0.017,-1.78 -0.0234,-1.78 -0.0193,-1.78 -0.0283,-1.78 -0.0262,-1.78 -0.0313,-1.78 -0.0359,-1.78 -0.0346,-1.78 -0.0496,-1.78 -0.0593,-1.78 -0.0436,-1.78 -0.0541,-1.78 -0.0581,-1.78 -0.0706,-1.78 -0.0702,-1.78 -0.0803,-1.78 -0.0778,-1.78 -0.0949,-1.78 -0.0858,-1.78 -0.1167,-1.78 -0.1177,-1.78 -0.1214,-1.78 -0.1099,-1.78 -0.1305,-1.78 -0.1281,-1.78 -0.1347,-1.78 -0.1388,-1.78 -0.1479,-1.78 -0.1418,-1.78 -0.1598,-1.78 -0.1652,-1.78 -0.1876,-1.78 -0.1703,-1.78 -0.1921,-1.78 -0.2092,-1.78 -0.1896,-1.78 -0.2082,-1.78 -0.2071,-1.78 -0.2292,-1.78 -0.2312,-1.78 -0.2443,-1.78 -0.2455,-1.78 -0.2546,-1.78 -0.2744,-1.78 -0.2727,-1.78 -0.2848,-1.78 -0.2969,-1.78 -0.2948,-1.78 -0.3127,-1.78 -0.3344,-1.78 -0.3367,-1.78 -0.3456,-1.78 -0.3436,-1.78 -0.3656,-1.78 -0.3697,-1.78 -0.4097,-1.78 -0.4087,-1.78 -0.4117,-1.78 -0.4303,-1.78 -0.4498,-1.78 -0.4543,-1.78 -0.4656,-1.78 -0.4828,-1.78 -0.5007,-1.78 -0.5127,-1.78 -0.5397,-1.78 -0.5335,-1.78 -0.5578,-1.78 -0.5758,-1.78 -0.5769,-1.78 -0.6108,-1.78 -0.6234,-1.78 -0.639,-1.78 -0.6628,-1.78 -0.6832,-1.78 -0.6875,-1.78 -0.7135,-1.78 -0.7411,-1.78 -0.7679,-1.78 -0.8015,-1.78 -0.7982,-1.78 -0.8369,-1.78 -0.8555,-1.78 -0.8896,-1.78 -0.9326,-1.78 -0.9556,-1.78 -0.9985,-1.78 -1.0727,-1.78 -1.106,-1.78 -1.2169,-1.78 -1.2815,-1.78 -1.3498,-1.78 -1.4058,-1.78 -1.3821,-1.78 -1.3762,-1.78 -1.4147,-1.78 -1.3912,-1.78 -1.4383,-1.78 -1.4941,-1.78 -1.5226,-1.78 -1.6598,-1.78 -1.6505,-1.78 -1.7027,-1.78 -1.7508,-1.78 -1.7601,-1.78 -1.774,-1.78 -1.8556,-1.78 -1.9533,-1.78 -2.0363,-1.78 -2.0961,-1.78 -2.2194,-1.78 -2.1553,-1.78 -2.2098,-1.78 -2.275,-1.78 -2.2634,-1.78 -2.2798,-1.78 -2.3593,-1.78 -2.3282,-1.78 -2.2626,-1.78 -2.3077,-1.78 -2.3569,-1.78 -2.4576,-1.78 -2.4296,-1.78 -2.5573,-1.78 -2.374,-1.78 -2.4029,-1.78 -2.4586,-1.78 -2.5911,-1.78 -2.7256,-1.78 -2.7166,-1.78 -2.7956,-1.78 -2.7504,-1.78 -2.6445,-1.78 -2.618,-1.78 -2.5245,-1.78 -2.5462,-1.78 -2.6651,-1.78 -2.6006,-1.78 -2.4551,-1.78 -2.4467,-1.78 -2.3454,-1.78 -2.3204,-1.78 -2.2398,-1.78 -2.2453,-1.78 -2.1358,-1.78 -1.9018,-1.78 -1.756,-1.78 -1.6148,-1.78 -1.5129,-1.78 -1.4059,-1.78 -1.3197,-1.78 -1.2143,-1.78 -1.1575,-1.78 -1.0998,-1.78 -1.0582,-1.78 -1.0649,-1.78 -0.9414,-1.78 -0.8684,-1.78 -0.8884,-1.78 -0.7985,-1.78 -0.7424,-1.78 -0.7286,-1.78 -0.6993,-1.78 -0.7004,-1.78 -0.6355,-1.78"
         style="fill:none;fill-rule:evenodd"
         id="path96" />
    </g>
    <g
       style="font-style:normal;font-weight:normal;font-size:12px;font-family:Dialog;color-interpolation:sRGB;fill:#dc3220;fill-opacity:0.1804;stroke:#dc3220;stroke-width:1;stroke-linecap:square;stroke-linejoin:miter;stroke-miterlimit:10;stroke-dasharray:none;stroke-dashoffset:0;stroke-opacity:0.1804;color-rendering:optimizeSpeed;image-rendering:optimizeSpeed;shape-rendering:crispEdges;text-rendering:optimizeSpeed"
       id="g98"
       transform="matrix(0.26458333,0,0,0.26458333,-18.453746,83.835887)">
      <path
         style="stroke:none"
         d="m 482.2708,395.88 0.7786,1.78 1.0967,1.78 1.7779,1.78 h 0.7247 l -1.2415,-1.78 -0.5902,-1.78 -0.3692,-1.78 -0.1592,-1.78 -0.0362,-1.78 0.0583,-1.78 0.1337,-1.78 0.1911,-1.78 0.2313,-1.78 0.2619,-1.78 0.2846,-1.78 0.3073,-1.78 0.3203,-1.78 0.3325,-1.78 0.3404,-1.78 0.357,-1.78 0.3543,-1.78 0.3686,-1.78 0.3709,-1.78 0.3685,-1.78 0.3746,-1.78 0.3804,-1.78 0.3858,-1.78 0.3742,-1.78 0.3794,-1.78 0.3847,-1.78 0.3852,-1.78 0.385,-1.78 0.3896,-1.78 0.3837,-1.78 0.3907,-1.78 0.3932,-1.78 0.3819,-1.78 0.3872,-1.78 0.3909,-1.78 0.3865,-1.78 0.3893,-1.78 0.3894,-1.78 0.3928,-1.78 0.3981,-1.78 0.3812,-1.78 0.3947,-1.78 0.3978,-1.78 0.3912,-1.78 0.4015,-1.78 0.3901,-1.78 0.3974,-1.78 0.3896,-1.78 0.4003,-1.78 0.3933,-1.78 0.401,-1.78 0.4049,-1.78 0.4022,-1.78 0.3983,-1.78 0.4098,-1.78 0.4057,-1.78 0.4144,-1.78 0.4107,-1.78 0.4196,-1.78 0.4135,-1.78 0.4122,-1.78 0.4235,-1.78 0.4257,-1.78 0.429,-1.78 0.4231,-1.78 0.4379,-1.78 0.4458,-1.78 0.4417,-1.78 0.446,-1.78 0.446,-1.78 0.4589,-1.78 0.4509,-1.78 0.4561,-1.78 0.4737,-1.78 0.4697,-1.78 0.4758,-1.78 0.4728,-1.78 0.4875,-1.78 0.4911,-1.78 0.4902,-1.78 0.509,-1.78 0.5039,-1.78 0.5096,-1.78 0.5208,-1.78 0.5237,-1.78 0.535,-1.78 0.5327,-1.78 0.5516,-1.78 0.5473,-1.78 0.5618,-1.78 0.568,-1.78 0.569,-1.78 0.5649,-1.78 0.6001,-1.78 0.5935,-1.78 0.6042,-1.78 0.6069,-1.78 0.6293,-1.78 0.6133,-1.78 0.6487,-1.78 0.6421,-1.78 0.6521,-1.78 0.6568,-1.78 0.6753,-1.78 0.6798,-1.78 0.6895,-1.78 0.6973,-1.78 0.7134,-1.78 0.716,-1.78 0.72,-1.78 0.7447,-1.78 0.7468,-1.78 0.7648,-1.78 0.7741,-1.78 0.7691,-1.78 0.7862,-1.78 0.8113,-1.78 0.8079,-1.78 0.8303,-1.78 0.8344,-1.78 0.8506,-1.78 0.8765,-1.78 0.8787,-1.78 0.8961,-1.78 0.9018,-1.78 0.9131,-1.78 0.9466,-1.78 0.9458,-1.78 0.9687,-1.78 0.9857,-1.78 1.0072,-1.78 1.0124,-1.78 1.0365,-1.78 1.0551,-1.78 1.0664,-1.78 1.0924,-1.78 1.1092,-1.78 1.122,-1.78 1.1598,-1.78 1.1817,-1.78 1.2081,-1.78 1.2339,-1.78 1.2474,-1.78 1.2748,-1.78 1.2983,-1.78 1.3382,-1.78 1.3721,-1.78 1.3357,-1.78 1.4143,-1.78 1.5037,-1.78 1.5061,-1.78 1.5273,-1.78 1.5261,-1.78 1.6271,-1.78 1.6377,-1.78 1.6615,-1.78 1.6743,-1.78 1.682,-1.78 1.7195,-1.78 1.7565,-1.78 1.7795,-1.78 1.8096,-1.78 1.9276,-1.78 1.9456,-1.78 1.9974,-1.78 2.1229,-1.78 2.1052,-1.78 2.1646,-1.78 2.1942,-1.78 2.1969,-1.78 2.2802,-1.78 2.3254,-1.78 2.3053,-1.78 2.3916,-1.78 2.4779,-1.78 2.5594,-1.78 2.6123,-1.78 2.7164,-1.78 2.6213,-1.78 2.617,-1.78 2.5438,-1.78 2.5406,-1.78 2.5541,-1.78 2.5581,-1.78 2.6277,-1.78 2.582,-1.78 2.647,-1.78 2.5739,-1.78 2.594,-1.78 2.5556,-1.78 2.5316,-1.78 2.5754,-1.78 2.5563,-1.78 2.5261,-1.78 2.5322,-1.78 2.5172,-1.78 2.5207,-1.78 2.4977,-1.78 2.1564,-1.78 h -10.5752 l -2.0695,1.78 -2.4689,1.78 -2.5225,1.78 -2.5316,1.78 -2.5727,1.78 -2.5949,1.78 -2.6852,1.78 -2.7595,1.78 -2.7549,1.78 -2.8165,1.78 -2.9596,1.78 -3.0265,1.78 -3.096,1.78 -3.0595,1.78 -3.1371,1.78 -3.0906,1.78 -3.0762,1.78 -3.1283,1.78 -3.1236,1.78 -3.1748,1.78 -3.2064,1.78 -3.3723,1.78 -3.3015,1.78 -3.2292,1.78 -3.2978,1.78 -3.0731,1.78 -2.9243,1.78 -3.0393,1.78 -2.9071,1.78 -2.7854,1.78 -2.7274,1.78 -2.6644,1.78 -2.6237,1.78 -2.6424,1.78 -2.4566,1.78 -2.4286,1.78 -2.4053,1.78 -2.2542,1.78 -2.2604,1.78 -2.4144,1.78 -2.1905,1.78 -2.1689,1.78 -2.1083,1.78 -2.1222,1.78 -2.117,1.78 -2.4964,1.78 -1.928,1.78 -1.8713,1.78 -1.8028,1.78 -1.7393,1.78 -1.6543,1.78 -1.565,1.78 -1.5624,1.78 -1.5389,1.78 -1.4668,1.78 -1.4385,1.78 -1.3912,1.78 -1.3779,1.78 -1.3442,1.78 -1.2923,1.78 -1.2496,1.78 -1.2039,1.78 -1.1813,1.78 -1.1479,1.78 -1.1242,1.78 -1.0965,1.78 -1.0816,1.78 -1.0372,1.78 -1.0487,1.78 -1.007,1.78 -0.9882,1.78 -0.9643,1.78 -0.9491,1.78 -0.9124,1.78 -0.9216,1.78 -0.8907,1.78 -0.8641,1.78 -0.8591,1.78 -0.8352,1.78 -0.8129,1.78 -0.8075,1.78 -0.789,1.78 -0.7657,1.78 -0.7441,1.78 -0.7255,1.78 -0.7214,1.78 -0.7145,1.78 -0.6908,1.78 -0.6893,1.78 -0.6515,1.78 -0.6435,1.78 -0.6414,1.78 -0.6198,1.78 -0.6116,1.78 -0.5967,1.78 -0.5864,1.78 -0.5757,1.78 -0.5491,1.78 -0.5455,1.78 -0.5463,1.78 -0.5126,1.78 -0.5117,1.78 -0.494,1.78 -0.4902,1.78 -0.4719,1.78 -0.4669,1.78 -0.4415,1.78 -0.4387,1.78 -0.4296,1.78 -0.4139,1.78 -0.4038,1.78 -0.3987,1.78 -0.3811,1.78 -0.3693,1.78 -0.3588,1.78 -0.3484,1.78 -0.3297,1.78 -0.3275,1.78 -0.3203,1.78 -0.2974,1.78 -0.2963,1.78 -0.2866,1.78 -0.27,1.78 -0.2582,1.78 -0.2527,1.78 -0.2478,1.78 -0.2249,1.78 -0.214,1.78 -0.2265,1.78 -0.1958,1.78 -0.1912,1.78 -0.1889,1.78 -0.1781,1.78 -0.1703,1.78 -0.1456,1.78 -0.1499,1.78 -0.1362,1.78 -0.1345,1.78 -0.1158,1.78 -0.1058,1.78 -0.1084,1.78 -0.0987,1.78 -0.0914,1.78 -0.0836,1.78 -0.0723,1.78 -0.0711,1.78 -0.0637,1.78 -0.0544,1.78 -0.0514,1.78 -0.0383,1.78 -0.0387,1.78 -0.0242,1.78 -0.0288,1.78 -0.0168,1.78 -0.0207,1.78 -0.005,1.78 -0.009,1.78 -0.005,1.78 0.0101,1.78 0.0138,1.78 0.007,1.78 0.0193,1.78 0.0208,1.78 0.0309,1.78 0.0285,1.78 0.0369,1.78 0.045,1.78 0.0386,1.78 0.0443,1.78 0.0498,1.78 0.0498,1.78 0.0701,1.78 0.0572,1.78 0.0651,1.78 0.0799,1.78 0.0788,1.78 0.0801,1.78 0.086,1.78 0.0976,1.78 0.1043,1.78 0.1026,1.78 0.1193,1.78 0.13,1.78 0.1295,1.78 0.1521,1.78 0.1655,1.78 0.1802,1.78 0.1899,1.78 0.2133,1.78 0.2317,1.78 0.2533,1.78 0.2804,1.78 0.3172,1.78 0.3696,1.78 0.4342,1.78 z"
         id="path97" />
    </g>
    <g
       style="font-style:normal;font-weight:normal;font-size:12px;font-family:Dialog;color-interpolation:linearRGB;fill:#dc3220;fill-opacity:1;stroke:#dc3220;stroke-width:6.6667;stroke-linecap:butt;stroke-linejoin:round;stroke-miterlimit:10;stroke-dasharray:none;stroke-dashoffset:0;stroke-opacity:1;color-rendering:optimizeQuality;image-rendering:optimizeQuality;shape-rendering:auto;text-rendering:geometricPrecision"
       id="g99"
       transform="matrix(0.26458333,0,0,0.26458333,-18.453746,83.835887)">
      <path
         d="m 486.2863,401.22 -1.5097,-1.78 -0.8434,-1.78 -0.5739,-1.78 -0.3502,-1.78 -0.2352,-1.78 -0.1557,-1.78 -0.0917,-1.78 -0.0446,-1.78 -0.0111,-1.78 0.0151,-1.78 0.0357,-1.78 0.0587,-1.78 0.0701,-1.78 0.0835,-1.78 0.0941,-1.78 0.1137,-1.78 0.1122,-1.78 0.1246,-1.78 0.1342,-1.78 0.1321,-1.78 0.1385,-1.78 0.1472,-1.78 0.1528,-1.78 0.1477,-1.78 0.1498,-1.78 0.1598,-1.78 0.164,-1.78 0.1575,-1.78 0.1699,-1.78 0.1669,-1.78 0.1732,-1.78 0.1773,-1.78 0.1684,-1.78 0.1752,-1.78 0.1812,-1.78 0.1778,-1.78 0.1842,-1.78 0.1851,-1.78 0.1927,-1.78 0.1922,-1.78 0.1856,-1.78 0.1996,-1.78 0.2033,-1.78 0.1983,-1.78 0.211,-1.78 0.2035,-1.78 0.2131,-1.78 0.2069,-1.78 0.2195,-1.78 0.2159,-1.78 0.2261,-1.78 0.2297,-1.78 0.2329,-1.78 0.2347,-1.78 0.2411,-1.78 0.2446,-1.78 0.2529,-1.78 0.2547,-1.78 0.264,-1.78 0.2597,-1.78 0.264,-1.78 0.2789,-1.78 0.281,-1.78 0.2894,-1.78 0.2844,-1.78 0.3041,-1.78 0.312,-1.78 0.3153,-1.78 0.3186,-1.78 0.3208,-1.78 0.3428,-1.78 0.3324,-1.78 0.3405,-1.78 0.3607,-1.78 0.3613,-1.78 0.3669,-1.78 0.3715,-1.78 0.387,-1.78 0.3937,-1.78 0.3938,-1.78 0.4147,-1.78 0.4157,-1.78 0.4196,-1.78 0.4346,-1.78 0.4412,-1.78 0.4522,-1.78 0.4569,-1.78 0.4752,-1.78 0.4756,-1.78 0.4878,-1.78 0.4988,-1.78 0.5038,-1.78 0.5032,-1.78 0.5335,-1.78 0.5327,-1.78 0.5472,-1.78 0.5504,-1.78 0.5705,-1.78 0.563,-1.78 0.5975,-1.78 0.5938,-1.78 0.6006,-1.78 0.6162,-1.78 0.6309,-1.78 0.6382,-1.78 0.6506,-1.78 0.6586,-1.78 0.6774,-1.78 0.6797,-1.78 0.6857,-1.78 0.7171,-1.78 0.7187,-1.78 0.7397,-1.78 0.7478,-1.78 0.7472,-1.78 0.7652,-1.78 0.7885,-1.78 0.7985,-1.78 0.8189,-1.78 0.8236,-1.78 0.8429,-1.78 0.8678,-1.78 0.8714,-1.78 0.8935,-1.78 0.9116,-1.78 0.9128,-1.78 0.9478,-1.78 0.955,-1.78 0.9785,-1.78 0.9963,-1.78 1.0281,-1.78 1.0247,-1.78 1.059,-1.78 1.0759,-1.78 1.0952,-1.78 1.1202,-1.78 1.1452,-1.78 1.163,-1.78 1.2047,-1.78 1.2369,-1.78 1.2763,-1.78 1.3059,-1.78 1.3193,-1.78 1.3567,-1.78 1.3825,-1.78 1.4385,-1.78 1.4672,-1.78 1.4504,-1.78 1.5343,-1.78 1.6215,-1.78 1.6544,-1.78 1.6993,-1.78 1.7271,-1.78 2.0617,-1.78 1.8774,-1.78 1.8918,-1.78 1.8913,-1.78 1.9255,-1.78 1.955,-1.78 2.0854,-1.78 2.02,-1.78 2.0319,-1.78 2.1665,-1.78 2.187,-1.78 2.227,-1.78 2.3827,-1.78 2.3644,-1.78 2.4146,-1.78 2.4608,-1.78 2.4911,-1.78 2.5937,-1.78 2.6823,-1.78 2.6148,-1.78 2.7323,-1.78 2.8879,-1.78 2.8944,-1.78 2.9569,-1.78 3.0443,-1.78 2.9139,-1.78 2.8958,-1.78 2.8337,-1.78 2.8344,-1.78 2.8151,-1.78 2.8244,-1.78 2.8824,-1.78 2.8208,-1.78 2.8716,-1.78 2.8001,-1.78 2.7768,-1.78 2.6861,-1.78 2.6432,-1.78 2.6675,-1.78 2.6206,-1.78 2.5606,-1.78 2.5525,-1.78 2.5243,-1.78 2.5216,-1.78 2.4833,-1.78 2.113,-1.78"
         style="fill:none;fill-rule:evenodd"
         id="path98" />
    </g>
    <g
       transform="matrix(0.26458333,0,0,0.26458333,58.651132,158.35706)"
       style="font-style:normal;font-weight:normal;font-size:20.4936px;font-family:Calibri;color-interpolation:linearRGB;fill:#000000;fill-opacity:1;stroke:#000000;stroke-width:1;stroke-linecap:square;stroke-linejoin:miter;stroke-miterlimit:10;stroke-dasharray:none;stroke-dashoffset:0;stroke-opacity:1;color-rendering:optimizeQuality;image-rendering:optimizeQuality;shape-rendering:auto;text-rendering:geometricPrecision"
       id="g100">
      <text
         x="0"
         xml:space="preserve"
         y="5"
         style="font-style:normal;font-variant:normal;font-weight:normal;font-stretch:normal;font-size:34.6667px;font-family:Calibri;-inkscape-font-specification:'Calibri, Normal';font-variant-ligatures:normal;font-variant-caps:normal;font-variant-numeric:normal;font-variant-east-asian:normal;stroke:none"
         id="text99">Same</text>
    </g>
    <g
       style="font-style:normal;font-weight:normal;font-size:12px;font-family:Dialog;color-interpolation:linearRGB;fill:#005ab5;fill-opacity:1;stroke:#005ab5;stroke-width:6.6667;stroke-linecap:butt;stroke-linejoin:round;stroke-miterlimit:10;stroke-dasharray:none;stroke-dashoffset:0;stroke-opacity:1;color-rendering:optimizeQuality;image-rendering:optimizeQuality;shape-rendering:auto;text-rendering:geometricPrecision"
       id="g101"
       transform="matrix(0.26458333,0,0,0.26458333,-113.28532,73.566106)">
      <line
         y2="317.60089"
         style="fill:none"
         x1="596.00763"
         x2="646.08289"
         y1="317.60089"
         id="line100" />
    </g>
    <g
       transform="matrix(0.26458333,0,0,0.26458333,58.651132,169.05289)"
       style="font-style:normal;font-weight:normal;font-size:20.4936px;font-family:Calibri;color-interpolation:linearRGB;fill:#000000;fill-opacity:1;stroke:#000000;stroke-width:1;stroke-linecap:square;stroke-linejoin:miter;stroke-miterlimit:10;stroke-dasharray:none;stroke-dashoffset:0;stroke-opacity:1;color-rendering:optimizeQuality;image-rendering:optimizeQuality;shape-rendering:auto;text-rendering:geometricPrecision"
       id="g102">
      <text
         x="0"
         xml:space="preserve"
         y="5"
         style="font-style:normal;font-variant:normal;font-weight:normal;font-stretch:normal;font-size:34.6667px;font-family:Calibri;-inkscape-font-specification:'Calibri, Normal';font-variant-ligatures:normal;font-variant-caps:normal;font-variant-numeric:normal;font-variant-east-asian:normal;stroke:none"
         id="text101">Different</text>
    </g>
    <g
       style="font-style:normal;font-weight:normal;font-size:12px;font-family:Dialog;color-interpolation:linearRGB;fill:#dc3220;fill-opacity:1;stroke:#dc3220;stroke-width:6.6667;stroke-linecap:butt;stroke-linejoin:round;stroke-miterlimit:10;stroke-dasharray:none;stroke-dashoffset:0;stroke-opacity:1;color-rendering:optimizeQuality;image-rendering:optimizeQuality;shape-rendering:auto;text-rendering:geometricPrecision"
       id="g103"
       transform="matrix(0.26458333,0,0,0.26458333,-113.28532,76.981815)">
      <line
         y2="344.39911"
         style="fill:none"
         x1="596.00763"
         x2="646.08289"
         y1="344.39911"
         id="line102" />
    </g>
  </g>
</svg>
