<svg width="720" height="1040" xmlns="http://www.w3.org/2000/svg" xmlns:xlink="http://www.w3.org/1999/xlink" overflow="hidden"><g><rect x="0" y="0" width="720" height="1040" fill="#FFFFFF"/><text font-family="Times New Roman,Times New Roman_MSFontService,sans-serif" font-weight="400" font-size="19" transform="translate(399.87 309)">Manuscript</text><text font-family="Times New Roman,Times New Roman_MSFontService,sans-serif" font-weight="400" font-size="19" transform="translate(477.253 446)">Keyboard</text><text font-family="Times New Roman,Times New Roman_MSFontService,sans-serif" font-weight="400" font-size="19" transform="translate(334.519 446)">Reaching</text><text font-family="Times New Roman,Times New Roman_MSFontService,sans-serif" font-weight="400" font-size="19" transform="translate(380.681 580)">Confirmatory</text><text font-family="Times New Roman,Times New Roman_MSFontService,sans-serif" font-weight="400" font-size="19" transform="translate(243.77 580)">Exploratory</text><text font-family="Times New Roman,Times New Roman_MSFontService,sans-serif" font-weight="400" font-size="19" transform="translate(35.9763 717)">Reaching</text><text font-family="Times New Roman,Times New Roman_MSFontService,sans-serif" font-weight="400" font-size="19" transform="translate(49.4763 739)">Onset</text><text font-family="Times New Roman,Times New Roman_MSFontService,sans-serif" font-weight="400" font-size="19" transform="translate(136.493 717)">Reaching</text><text font-family="Times New Roman,Times New Roman_MSFontService,sans-serif" font-weight="400" font-size="19" transform="translate(138.66 739)">Duration</text><text font-family="Times New Roman,Times New Roman_MSFontService,sans-serif" font-weight="400" font-size="19" transform="translate(309.228 717)">Traveled</text><text font-family="Times New Roman,Times New Roman_MSFontService,sans-serif" font-weight="400" font-size="19" transform="translate(309.322 739)">Distance</text><text font-family="Times New Roman,Times New Roman_MSFontService,sans-serif" font-weight="400" font-size="19" transform="translate(493.527 717)">Reach</text><text font-family="Times New Roman,Times New Roman_MSFontService,sans-serif" font-weight="400" font-size="19" transform="translate(498.78 739)">Area</text><text font-family="Times New Roman,Times New Roman_MSFontService,sans-serif" font-weight="400" font-size="19" transform="translate(236.873 717)">COM</text><text font-family="Times New Roman,Times New Roman_MSFontService,sans-serif" font-weight="400" font-size="19" transform="translate(645.061 718)">RT</text><text font-family="Times New Roman,Times New Roman_MSFontService,sans-serif" font-weight="400" font-size="19" transform="translate(404.602 717)">MAD</text><path d="M0.520797-0.416191 77.9414 96.4633 76.8998 97.2957-0.520797 0.416191ZM79.7131 93.3407 81.5826 102.087 73.4635 98.335Z" fill="#4472C4" transform="matrix(-1 0 0 1 370.083 455.5)"/><path d="M0.547754-0.380013 69.3484 98.7898 68.2529 99.5498-0.547754 0.380013ZM71.3272 95.7943 72.6008 104.647 64.7542 100.354Z" fill="#4472C4" transform="matrix(-1 0 0 1 443.101 318.5)"/><path d="M443.05 318.123 510.918 417.27 509.818 418.023 441.95 318.877ZM512.916 414.287 514.134 423.148 506.314 418.805Z" fill="#4472C4"/><path d="M371.071 455.156 429.207 551.535 428.065 552.223 369.929 455.844ZM431.373 548.671 432.079 557.588 424.522 552.803Z" fill="#4472C4"/><path d="M515.073 455.16 654 689.114 652.854 689.795 513.927 455.84ZM656.186 686.267 656.831 695.188 649.307 690.351Z" fill="#4472C4"/><path d="M432.016 590.078 513.31 689.563 512.278 690.407 430.984 590.922ZM515.048 686.422 517.012 695.148 508.853 691.484Z" fill="#4472C4"/><path d="M288.903 589.969 421.754 690.591 420.949 691.654 288.098 591.031ZM422.704 687.129 426.666 695.148 417.874 693.506Z" fill="#4472C4"/><path d="M289.093 590.195 339.844 688.914 338.658 689.523 287.907 590.805ZM342.199 686.204 342.299 695.148 335.084 689.862Z" fill="#4472C4"/><path d="M0.64075-0.184077 28.8635 98.0558 27.582 98.424-0.64075 0.184077ZM31.6991 95.854 30.0635 104.647 24.0101 98.0629Z" fill="#4472C4" transform="matrix(-1 0 0 1 288.564 590.5)"/><path d="M0.44562-0.49585 111.93 99.6954 111.039 100.687-0.44562 0.49585ZM113.167 96.3249 116.443 104.647 107.819 102.275Z" fill="#4472C4" transform="matrix(-1 0 0 1 288.943 590.5)"/><path d="M0.289627-0.600467 211.245 101.151 210.666 102.352-0.289627 0.600467ZM211.492 97.5691 216.96 104.647 208.017 104.775Z" fill="#4472C4" transform="matrix(-1 0 0 1 288.46 590.5)"/></g></svg>