<?xml version="1.0" encoding="UTF-8" standalone="no"?>
<svg width="211.667mm" height="158.75mm"
 viewBox="0 0 600 450"
 xmlns="http://www.w3.org/2000/svg" xmlns:xlink="http://www.w3.org/1999/xlink"  version="1.2" baseProfile="tiny">
<title>Qt SVG Document</title>
<desc>MATLAB, The MathWorks, Inc. Version 25.2.0.3055257 R2025b Update 2</desc>
<defs>
</defs>
<g fill="none" stroke="black" stroke-width="1" fill-rule="evenodd" stroke-linecap="square" stroke-linejoin="bevel" >

<g fill="#ffffff" fill-opacity="1" stroke="none" transform="matrix(0.75,0,0,0.75,0,0)"
font-family="MS Shell Dlg 2" font-size="8.25" font-weight="400" font-style="normal" 
>
<path vector-effect="none" fill-rule="evenodd" d="M0,0 L801,0 L801,601 L0,601 L0,0"/>
</g>

<g fill="#ffffff" fill-opacity="1" stroke="none" transform="matrix(7.5e-05,0,0,7.5e-05,0,0)"
font-family="MS Shell Dlg 2" font-size="8.25" font-weight="400" font-style="normal" 
>
<path vector-effect="none" fill-rule="evenodd" d="M2.65e+06,450000 L2.65e+06,5.34e+06 L7.24e+06,5.34e+06 L7.24e+06,450000 L2.65e+06,450000"/>
</g>

<g fill="#212121" fill-opacity="0.14902" stroke="#212121" stroke-opacity="0.14902" stroke-width="0.666667" stroke-linecap="butt" stroke-linejoin="round" transform="matrix(0.75,0,0,0.75,0,0)"
font-family="MS Shell Dlg 2" font-size="8.25" font-weight="400" font-style="normal" 
>
<polyline fill="none" vector-effect="none" points="265,45 265,534 " />
<polyline fill="none" vector-effect="none" points="316,45 316,534 " />
<polyline fill="none" vector-effect="none" points="367,45 367,534 " />
<polyline fill="none" vector-effect="none" points="418,45 418,534 " />
<polyline fill="none" vector-effect="none" points="469,45 469,534 " />
<polyline fill="none" vector-effect="none" points="520,45 520,534 " />
<polyline fill="none" vector-effect="none" points="571,45 571,534 " />
<polyline fill="none" vector-effect="none" points="622,45 622,534 " />
<polyline fill="none" vector-effect="none" points="673,45 673,534 " />
<polyline fill="none" vector-effect="none" points="265,499.071 724,499.071 " />
<polyline fill="none" vector-effect="none" points="265,464.143 724,464.143 " />
<polyline fill="none" vector-effect="none" points="265,429.214 724,429.214 " />
<polyline fill="none" vector-effect="none" points="265,394.286 724,394.286 " />
<polyline fill="none" vector-effect="none" points="265,359.357 724,359.357 " />
<polyline fill="none" vector-effect="none" points="265,324.429 724,324.429 " />
<polyline fill="none" vector-effect="none" points="265,289.5 724,289.5 " />
<polyline fill="none" vector-effect="none" points="265,254.571 724,254.571 " />
<polyline fill="none" vector-effect="none" points="265,219.643 724,219.643 " />
<polyline fill="none" vector-effect="none" points="265,184.714 724,184.714 " />
<polyline fill="none" vector-effect="none" points="265,149.786 724,149.786 " />
<polyline fill="none" vector-effect="none" points="265,114.857 724,114.857 " />
<polyline fill="none" vector-effect="none" points="265,79.9286 724,79.9286 " />
<polyline fill="none" vector-effect="none" points="265,45 724,45 " />
</g>

<g fill="#212121" fill-opacity="1" stroke="#212121" stroke-opacity="1" stroke-width="1" stroke-linecap="square" stroke-linejoin="bevel" transform="matrix(0.75,0,0,0.75,338.25,431.25)"
font-family="Helvetica" font-size="18" font-weight="400" font-style="normal" 
>
<text fill="#212121" fill-opacity="1" stroke="none" xml:space="preserve" x="0" y="0" font-family="Helvetica" font-size="18" font-weight="400" font-style="normal" 
 >Cohen's d</text>
</g>

<g fill="#212121" fill-opacity="1" stroke="#212121" stroke-opacity="1" stroke-width="1" stroke-linecap="square" stroke-linejoin="bevel" transform="matrix(0.75,0,0,0.75,398.25,438)"
font-family="Helvetica" font-size="14" font-weight="400" font-style="normal" 
>
<text fill="#212121" fill-opacity="1" stroke="none" xml:space="preserve" x="0" y="0" font-family="Helvetica" font-size="14" font-weight="400" font-style="normal" 
 >z</text>
</g>

<g fill="#212121" fill-opacity="1" stroke="#212121" stroke-opacity="1" stroke-width="0.666667" stroke-linecap="square" stroke-linejoin="round" transform="matrix(0.75,0,0,0.75,0,0)"
font-family="Helvetica" font-size="14" font-weight="400" font-style="normal" 
>
<polyline fill="none" vector-effect="none" points="265,534 724,534 " />
<polyline fill="none" vector-effect="none" points="265,534 265,529.11 " />
<polyline fill="none" vector-effect="none" points="316,534 316,529.11 " />
<polyline fill="none" vector-effect="none" points="367,534 367,529.11 " />
<polyline fill="none" vector-effect="none" points="418,534 418,529.11 " />
<polyline fill="none" vector-effect="none" points="469,534 469,529.11 " />
<polyline fill="none" vector-effect="none" points="520,534 520,529.11 " />
<polyline fill="none" vector-effect="none" points="571,534 571,529.11 " />
<polyline fill="none" vector-effect="none" points="622,534 622,529.11 " />
<polyline fill="none" vector-effect="none" points="673,534 673,529.11 " />
</g>

<g fill="#212121" fill-opacity="1" stroke="#212121" stroke-opacity="1" stroke-width="1" stroke-linecap="square" stroke-linejoin="bevel" transform="matrix(0.75,0,0,0.75,195.375,416.15)"
font-family="Helvetica" font-size="16" font-weight="400" font-style="normal" 
>
<text fill="#212121" fill-opacity="1" stroke="none" xml:space="preserve" x="0" y="0" font-family="Helvetica" font-size="16" font-weight="400" font-style="normal" 
 >0</text>
</g>

<g fill="#212121" fill-opacity="1" stroke="#212121" stroke-opacity="1" stroke-width="1" stroke-linecap="square" stroke-linejoin="bevel" transform="matrix(0.75,0,0,0.75,228.75,416.15)"
font-family="Helvetica" font-size="16" font-weight="400" font-style="normal" 
>
<text fill="#212121" fill-opacity="1" stroke="none" xml:space="preserve" x="0" y="0" font-family="Helvetica" font-size="16" font-weight="400" font-style="normal" 
 >0.2</text>
</g>

<g fill="#212121" fill-opacity="1" stroke="#212121" stroke-opacity="1" stroke-width="1" stroke-linecap="square" stroke-linejoin="bevel" transform="matrix(0.75,0,0,0.75,267,416.15)"
font-family="Helvetica" font-size="16" font-weight="400" font-style="normal" 
>
<text fill="#212121" fill-opacity="1" stroke="none" xml:space="preserve" x="0" y="0" font-family="Helvetica" font-size="16" font-weight="400" font-style="normal" 
 >0.4</text>
</g>

<g fill="#212121" fill-opacity="1" stroke="#212121" stroke-opacity="1" stroke-width="1" stroke-linecap="square" stroke-linejoin="bevel" transform="matrix(0.75,0,0,0.75,305.25,416.15)"
font-family="Helvetica" font-size="16" font-weight="400" font-style="normal" 
>
<text fill="#212121" fill-opacity="1" stroke="none" xml:space="preserve" x="0" y="0" font-family="Helvetica" font-size="16" font-weight="400" font-style="normal" 
 >0.6</text>
</g>

<g fill="#212121" fill-opacity="1" stroke="#212121" stroke-opacity="1" stroke-width="1" stroke-linecap="square" stroke-linejoin="bevel" transform="matrix(0.75,0,0,0.75,343.5,416.15)"
font-family="Helvetica" font-size="16" font-weight="400" font-style="normal" 
>
<text fill="#212121" fill-opacity="1" stroke="none" xml:space="preserve" x="0" y="0" font-family="Helvetica" font-size="16" font-weight="400" font-style="normal" 
 >0.8</text>
</g>

<g fill="#212121" fill-opacity="1" stroke="#212121" stroke-opacity="1" stroke-width="1" stroke-linecap="square" stroke-linejoin="bevel" transform="matrix(0.75,0,0,0.75,386.625,416.15)"
font-family="Helvetica" font-size="16" font-weight="400" font-style="normal" 
>
<text fill="#212121" fill-opacity="1" stroke="none" xml:space="preserve" x="0" y="0" font-family="Helvetica" font-size="16" font-weight="400" font-style="normal" 
 >1</text>
</g>

<g fill="#212121" fill-opacity="1" stroke="#212121" stroke-opacity="1" stroke-width="1" stroke-linecap="square" stroke-linejoin="bevel" transform="matrix(0.75,0,0,0.75,420,416.15)"
font-family="Helvetica" font-size="16" font-weight="400" font-style="normal" 
>
<text fill="#212121" fill-opacity="1" stroke="none" xml:space="preserve" x="0" y="0" font-family="Helvetica" font-size="16" font-weight="400" font-style="normal" 
 >1.2</text>
</g>

<g fill="#212121" fill-opacity="1" stroke="#212121" stroke-opacity="1" stroke-width="1" stroke-linecap="square" stroke-linejoin="bevel" transform="matrix(0.75,0,0,0.75,458.25,416.15)"
font-family="Helvetica" font-size="16" font-weight="400" font-style="normal" 
>
<text fill="#212121" fill-opacity="1" stroke="none" xml:space="preserve" x="0" y="0" font-family="Helvetica" font-size="16" font-weight="400" font-style="normal" 
 >1.4</text>
</g>

<g fill="#212121" fill-opacity="1" stroke="#212121" stroke-opacity="1" stroke-width="1" stroke-linecap="square" stroke-linejoin="bevel" transform="matrix(0.75,0,0,0.75,496.5,416.15)"
font-family="Helvetica" font-size="16" font-weight="400" font-style="normal" 
>
<text fill="#212121" fill-opacity="1" stroke="none" xml:space="preserve" x="0" y="0" font-family="Helvetica" font-size="16" font-weight="400" font-style="normal" 
 >1.6</text>
</g>

<g fill="#212121" fill-opacity="1" stroke="#212121" stroke-opacity="1" stroke-width="0.666667" stroke-linecap="square" stroke-linejoin="round" transform="matrix(0.75,0,0,0.75,0,0)"
font-family="Helvetica" font-size="16" font-weight="400" font-style="normal" 
>
<polyline fill="none" vector-effect="none" points="265,534 265,45 " />
<polyline fill="none" vector-effect="none" points="265,499.071 269.89,499.071 " />
<polyline fill="none" vector-effect="none" points="265,464.143 269.89,464.143 " />
<polyline fill="none" vector-effect="none" points="265,429.214 269.89,429.214 " />
<polyline fill="none" vector-effect="none" points="265,394.286 269.89,394.286 " />
<polyline fill="none" vector-effect="none" points="265,359.357 269.89,359.357 " />
<polyline fill="none" vector-effect="none" points="265,324.429 269.89,324.429 " />
<polyline fill="none" vector-effect="none" points="265,289.5 269.89,289.5 " />
<polyline fill="none" vector-effect="none" points="265,254.571 269.89,254.571 " />
<polyline fill="none" vector-effect="none" points="265,219.643 269.89,219.643 " />
<polyline fill="none" vector-effect="none" points="265,184.714 269.89,184.714 " />
<polyline fill="none" vector-effect="none" points="265,149.786 269.89,149.786 " />
<polyline fill="none" vector-effect="none" points="265,114.857 269.89,114.857 " />
<polyline fill="none" vector-effect="none" points="265,79.9286 269.89,79.9286 " />
<polyline fill="none" vector-effect="none" points="265,45 269.89,45 " />
</g>

<g fill="#212121" fill-opacity="1" stroke="#212121" stroke-opacity="1" stroke-width="1" stroke-linecap="square" stroke-linejoin="bevel" transform="matrix(0.75,0,0,0.75,139.6,378.429)"
font-family="Helvetica" font-size="16" font-weight="400" font-style="normal" 
>
<text fill="#212121" fill-opacity="1" stroke="none" xml:space="preserve" x="0" y="0" font-family="Helvetica" font-size="16" font-weight="400" font-style="normal" 
 >Reach RT</text>
</g>

<g fill="#212121" fill-opacity="1" stroke="#212121" stroke-opacity="1" stroke-width="1" stroke-linecap="square" stroke-linejoin="bevel" transform="matrix(0.75,0,0,0.75,109.6,352.232)"
font-family="Helvetica" font-size="16" font-weight="400" font-style="normal" 
>
<text fill="#212121" fill-opacity="1" stroke="none" xml:space="preserve" x="0" y="0" font-family="Helvetica" font-size="16" font-weight="400" font-style="normal" 
 >Movement Time</text>
</g>

<g fill="#212121" fill-opacity="1" stroke="#212121" stroke-opacity="1" stroke-width="1" stroke-linecap="square" stroke-linejoin="bevel" transform="matrix(0.75,0,0,0.75,1.6,326.036)"
font-family="Helvetica" font-size="16" font-weight="400" font-style="normal" 
>
<text fill="#212121" fill-opacity="1" stroke="none" xml:space="preserve" x="0" y="0" font-family="Helvetica" font-size="16" font-weight="400" font-style="normal" 
 >Maximum Absolute Deviation (MAD)</text>
</g>

<g fill="#212121" fill-opacity="1" stroke="#212121" stroke-opacity="1" stroke-width="1" stroke-linecap="square" stroke-linejoin="bevel" transform="matrix(0.75,0,0,0.75,71.35,299.839)"
font-family="Helvetica" font-size="16" font-weight="400" font-style="normal" 
>
<text fill="#212121" fill-opacity="1" stroke="none" xml:space="preserve" x="0" y="0" font-family="Helvetica" font-size="16" font-weight="400" font-style="normal" 
 >Change of Mind (COM)</text>
</g>

<g fill="#212121" fill-opacity="1" stroke="#212121" stroke-opacity="1" stroke-width="1" stroke-linecap="square" stroke-linejoin="bevel" transform="matrix(0.75,0,0,0.75,118.6,273.643)"
font-family="Helvetica" font-size="16" font-weight="400" font-style="normal" 
>
<text fill="#212121" fill-opacity="1" stroke="none" xml:space="preserve" x="0" y="0" font-family="Helvetica" font-size="16" font-weight="400" font-style="normal" 
 >Total Distance</text>
</g>

<g fill="#212121" fill-opacity="1" stroke="#212121" stroke-opacity="1" stroke-width="1" stroke-linecap="square" stroke-linejoin="bevel" transform="matrix(0.75,0,0,0.75,60.85,247.446)"
font-family="Helvetica" font-size="16" font-weight="400" font-style="normal" 
>
<text fill="#212121" fill-opacity="1" stroke="none" xml:space="preserve" x="0" y="0" font-family="Helvetica" font-size="16" font-weight="400" font-style="normal" 
 >Area Under Curve (AUC)</text>
</g>

<g fill="#212121" fill-opacity="1" stroke="#212121" stroke-opacity="1" stroke-width="1" stroke-linecap="square" stroke-linejoin="bevel" transform="matrix(0.75,0,0,0.75,97.6,221.25)"
font-family="Helvetica" font-size="16" font-weight="400" font-style="normal" 
>
<text fill="#212121" fill-opacity="1" stroke="none" xml:space="preserve" x="0" y="0" font-family="Helvetica" font-size="16" font-weight="400" font-style="normal" 
 >Maximum Velocity</text>
</g>

<g fill="#212121" fill-opacity="1" stroke="#212121" stroke-opacity="1" stroke-width="1" stroke-linecap="square" stroke-linejoin="bevel" transform="matrix(0.75,0,0,0.75,131.35,195.054)"
font-family="Helvetica" font-size="16" font-weight="400" font-style="normal" 
>
<text fill="#212121" fill-opacity="1" stroke="none" xml:space="preserve" x="0" y="0" font-family="Helvetica" font-size="16" font-weight="400" font-style="normal" 
 >Reach Area</text>
</g>

<g fill="#212121" fill-opacity="1" stroke="#212121" stroke-opacity="1" stroke-width="1" stroke-linecap="square" stroke-linejoin="bevel" transform="matrix(0.75,0,0,0.75,123.1,168.857)"
font-family="Helvetica" font-size="16" font-weight="400" font-style="normal" 
>
<text fill="#212121" fill-opacity="1" stroke="none" xml:space="preserve" x="0" y="0" font-family="Helvetica" font-size="16" font-weight="400" font-style="normal" 
 >Keyboard RT</text>
</g>

<g fill="#212121" fill-opacity="1" stroke="#212121" stroke-opacity="1" stroke-width="1" stroke-linecap="square" stroke-linejoin="bevel" transform="matrix(0.75,0,0,0.75,131.35,142.661)"
font-family="Helvetica" font-size="16" font-weight="400" font-style="normal" 
>
<text fill="#212121" fill-opacity="1" stroke="none" xml:space="preserve" x="0" y="0" font-family="Helvetica" font-size="16" font-weight="400" font-style="normal" 
 >Head Angle</text>
</g>

<g fill="#212121" fill-opacity="1" stroke="#212121" stroke-opacity="1" stroke-width="1" stroke-linecap="square" stroke-linejoin="bevel" transform="matrix(0.75,0,0,0.75,174.85,116.464)"
font-family="Helvetica" font-size="16" font-weight="400" font-style="normal" 
>
<text fill="#212121" fill-opacity="1" stroke="none" xml:space="preserve" x="0" y="0" font-family="Helvetica" font-size="16" font-weight="400" font-style="normal" 
 >IEP</text>
</g>

<g fill="#212121" fill-opacity="1" stroke="#212121" stroke-opacity="1" stroke-width="1" stroke-linecap="square" stroke-linejoin="bevel" transform="matrix(0.75,0,0,0.75,141.85,90.2679)"
font-family="Helvetica" font-size="16" font-weight="400" font-style="normal" 
>
<text fill="#212121" fill-opacity="1" stroke="none" xml:space="preserve" x="0" y="0" font-family="Helvetica" font-size="16" font-weight="400" font-style="normal" 
 >Trajectory</text>
</g>

<g fill="#212121" fill-opacity="1" stroke="#212121" stroke-opacity="1" stroke-width="1" stroke-linecap="square" stroke-linejoin="bevel" transform="matrix(0.75,0,0,0.75,132.85,64.0714)"
font-family="Helvetica" font-size="16" font-weight="400" font-style="normal" 
>
<text fill="#212121" fill-opacity="1" stroke="none" xml:space="preserve" x="0" y="0" font-family="Helvetica" font-size="16" font-weight="400" font-style="normal" 
 >X-axis STD</text>
</g>

<g fill="#212121" fill-opacity="1" stroke="#212121" stroke-opacity="1" stroke-width="1" stroke-linecap="square" stroke-linejoin="bevel" transform="matrix(0.75,0,0,0.75,152.35,37.875)"
font-family="Helvetica" font-size="16" font-weight="400" font-style="normal" 
>
<text fill="#212121" fill-opacity="1" stroke="none" xml:space="preserve" x="0" y="0" font-family="Helvetica" font-size="16" font-weight="400" font-style="normal" 
 >Velocity</text>
</g>

<g fill="#212121" fill-opacity="1" stroke="#212121" stroke-opacity="1" stroke-width="1" stroke-linecap="square" stroke-linejoin="bevel" transform="matrix(0.75,0,0,0.75,190.875,27)"
font-family="Helvetica" font-size="21" font-weight="700" font-style="normal" 
>
<text fill="#212121" fill-opacity="1" stroke="none" xml:space="preserve" x="0" y="0" font-family="Helvetica" font-size="21" font-weight="700" font-style="normal" 
 >Effect Sizes (d_z) - TrajNorm noStandardization</text>
</g>

<g fill="#1171be" fill-opacity="1" stroke="#1171be" stroke-opacity="1" stroke-width="2" stroke-linecap="butt" stroke-linejoin="round" transform="matrix(0.75,0,0,0.75,0,0)"
font-family="Helvetica" font-size="21" font-weight="700" font-style="normal" 
>
<polyline fill="none" vector-effect="none" points="312.232,499.071 267.463,499.071 " />
<polyline fill="none" vector-effect="none" points="563.121,464.143 500.334,464.143 " />
<polyline fill="none" vector-effect="none" points="482.735,429.214 381.228,429.214 " />
<polyline fill="none" vector-effect="none" points="382.785,394.286 300.429,394.286 " />
<polyline fill="none" vector-effect="none" points="506.958,359.357 404.438,359.357 " />
<polyline fill="none" vector-effect="none" points="447.196,324.429 355.28,324.429 " />
<polyline fill="none" vector-effect="none" points="439.943,254.571 349.101,254.571 " />
<polyline fill="none" vector-effect="none" points="564.232,219.643 477.362,219.643 " />
<polyline fill="none" vector-effect="none" points="368.189,184.714 286.92,184.714 " />
<polyline fill="none" vector-effect="none" points="375.667,149.786 294.62,149.786 " />
<polyline fill="none" vector-effect="none" points="343.735,114.857 273.169,114.857 " />
<polyline fill="none" vector-effect="none" points="356.742,79.9286 291.936,79.9286 " />
<polyline fill="none" vector-effect="none" points="312.232,499.071 430.066,499.071 " />
<polyline fill="none" vector-effect="none" points="563.121,464.143 661.017,464.143 " />
<polyline fill="none" vector-effect="none" points="482.735,429.214 636.365,429.214 " />
<polyline fill="none" vector-effect="none" points="382.785,394.286 473.913,394.286 " />
<polyline fill="none" vector-effect="none" points="506.958,359.357 671.617,359.357 " />
<polyline fill="none" vector-effect="none" points="447.196,324.429 572.283,324.429 " />
<polyline fill="none" vector-effect="none" points="439.943,254.571 559.721,254.571 " />
<polyline fill="none" vector-effect="none" points="564.232,219.643 702.921,219.643 " />
<polyline fill="none" vector-effect="none" points="368.189,184.714 453.725,184.714 " />
<polyline fill="none" vector-effect="none" points="375.667,149.786 461.165,149.786 " />
<polyline fill="none" vector-effect="none" points="343.735,114.857 426.92,114.857 " />
<polyline fill="none" vector-effect="none" points="356.742,79.9286 423.778,79.9286 " />
</g>

<g fill="#0000ff" fill-opacity="1" stroke="none" transform="matrix(0.75,0,0,0.75,0,0)"
font-family="Helvetica" font-size="21" font-weight="700" font-style="normal" 
>
<circle cx="312.232" cy="499.071" r="5.33333"/>
</g>

<g fill="none" stroke="#1171be" stroke-opacity="1" stroke-width="2" stroke-linecap="butt" stroke-linejoin="miter" stroke-miterlimit="2" transform="matrix(0.75,0,0,0.75,0,0)"
font-family="Helvetica" font-size="21" font-weight="700" font-style="normal" 
>
<path vector-effect="none" fill-rule="evenodd" d="M317.565,499.071 C317.565,496.126 315.178,493.738 312.232,493.738 C309.286,493.738 306.899,496.126 306.899,499.071 C306.899,502.017 309.286,504.405 312.232,504.405 C315.178,504.405 317.565,502.017 317.565,499.071 "/>
</g>

<g fill="#0000ff" fill-opacity="1" stroke="none" transform="matrix(0.75,0,0,0.75,0,0)"
font-family="Helvetica" font-size="21" font-weight="700" font-style="normal" 
>
<circle cx="563.121" cy="464.143" r="5.33333"/>
</g>

<g fill="none" stroke="#1171be" stroke-opacity="1" stroke-width="2" stroke-linecap="butt" stroke-linejoin="miter" stroke-miterlimit="2" transform="matrix(0.75,0,0,0.75,0,0)"
font-family="Helvetica" font-size="21" font-weight="700" font-style="normal" 
>
<path vector-effect="none" fill-rule="evenodd" d="M568.455,464.143 C568.455,461.197 566.067,458.81 563.121,458.81 C560.176,458.81 557.788,461.197 557.788,464.143 C557.788,467.088 560.176,469.476 563.121,469.476 C566.067,469.476 568.455,467.088 568.455,464.143 "/>
</g>

<g fill="#0000ff" fill-opacity="1" stroke="none" transform="matrix(0.75,0,0,0.75,0,0)"
font-family="Helvetica" font-size="21" font-weight="700" font-style="normal" 
>
<circle cx="482.735" cy="429.214" r="5.33333"/>
</g>

<g fill="none" stroke="#1171be" stroke-opacity="1" stroke-width="2" stroke-linecap="butt" stroke-linejoin="miter" stroke-miterlimit="2" transform="matrix(0.75,0,0,0.75,0,0)"
font-family="Helvetica" font-size="21" font-weight="700" font-style="normal" 
>
<path vector-effect="none" fill-rule="evenodd" d="M488.068,429.214 C488.068,426.269 485.68,423.881 482.735,423.881 C479.789,423.881 477.401,426.269 477.401,429.214 C477.401,432.16 479.789,434.548 482.735,434.548 C485.68,434.548 488.068,432.16 488.068,429.214 "/>
</g>

<g fill="#0000ff" fill-opacity="1" stroke="none" transform="matrix(0.75,0,0,0.75,0,0)"
font-family="Helvetica" font-size="21" font-weight="700" font-style="normal" 
>
<circle cx="382.785" cy="394.286" r="5.33333"/>
</g>

<g fill="none" stroke="#1171be" stroke-opacity="1" stroke-width="2" stroke-linecap="butt" stroke-linejoin="miter" stroke-miterlimit="2" transform="matrix(0.75,0,0,0.75,0,0)"
font-family="Helvetica" font-size="21" font-weight="700" font-style="normal" 
>
<path vector-effect="none" fill-rule="evenodd" d="M388.119,394.286 C388.119,391.34 385.731,388.952 382.785,388.952 C379.84,388.952 377.452,391.34 377.452,394.286 C377.452,397.231 379.84,399.619 382.785,399.619 C385.731,399.619 388.119,397.231 388.119,394.286 "/>
</g>

<g fill="#0000ff" fill-opacity="1" stroke="none" transform="matrix(0.75,0,0,0.75,0,0)"
font-family="Helvetica" font-size="21" font-weight="700" font-style="normal" 
>
<circle cx="506.958" cy="359.357" r="5.33333"/>
</g>

<g fill="none" stroke="#1171be" stroke-opacity="1" stroke-width="2" stroke-linecap="butt" stroke-linejoin="miter" stroke-miterlimit="2" transform="matrix(0.75,0,0,0.75,0,0)"
font-family="Helvetica" font-size="21" font-weight="700" font-style="normal" 
>
<path vector-effect="none" fill-rule="evenodd" d="M512.291,359.357 C512.291,356.412 509.903,354.024 506.958,354.024 C504.012,354.024 501.625,356.412 501.625,359.357 C501.625,362.303 504.012,364.69 506.958,364.69 C509.903,364.69 512.291,362.303 512.291,359.357 "/>
</g>

<g fill="#0000ff" fill-opacity="1" stroke="none" transform="matrix(0.75,0,0,0.75,0,0)"
font-family="Helvetica" font-size="21" font-weight="700" font-style="normal" 
>
<circle cx="447.196" cy="324.429" r="5.33333"/>
</g>

<g fill="none" stroke="#1171be" stroke-opacity="1" stroke-width="2" stroke-linecap="butt" stroke-linejoin="miter" stroke-miterlimit="2" transform="matrix(0.75,0,0,0.75,0,0)"
font-family="Helvetica" font-size="21" font-weight="700" font-style="normal" 
>
<path vector-effect="none" fill-rule="evenodd" d="M452.53,324.429 C452.53,321.483 450.142,319.095 447.196,319.095 C444.251,319.095 441.863,321.483 441.863,324.429 C441.863,327.374 444.251,329.762 447.196,329.762 C450.142,329.762 452.53,327.374 452.53,324.429 "/>
</g>

<g fill="#0000ff" fill-opacity="1" stroke="none" transform="matrix(0.75,0,0,0.75,0,0)"
font-family="Helvetica" font-size="21" font-weight="700" font-style="normal" 
>
<circle cx="439.943" cy="254.571" r="5.33333"/>
</g>

<g fill="none" stroke="#1171be" stroke-opacity="1" stroke-width="2" stroke-linecap="butt" stroke-linejoin="miter" stroke-miterlimit="2" transform="matrix(0.75,0,0,0.75,0,0)"
font-family="Helvetica" font-size="21" font-weight="700" font-style="normal" 
>
<path vector-effect="none" fill-rule="evenodd" d="M445.276,254.571 C445.276,251.626 442.888,249.238 439.943,249.238 C436.997,249.238 434.61,251.626 434.61,254.571 C434.61,257.517 436.997,259.905 439.943,259.905 C442.888,259.905 445.276,257.517 445.276,254.571 "/>
</g>

<g fill="#0000ff" fill-opacity="1" stroke="none" transform="matrix(0.75,0,0,0.75,0,0)"
font-family="Helvetica" font-size="21" font-weight="700" font-style="normal" 
>
<circle cx="564.232" cy="219.643" r="5.33333"/>
</g>

<g fill="none" stroke="#1171be" stroke-opacity="1" stroke-width="2" stroke-linecap="butt" stroke-linejoin="miter" stroke-miterlimit="2" transform="matrix(0.75,0,0,0.75,0,0)"
font-family="Helvetica" font-size="21" font-weight="700" font-style="normal" 
>
<path vector-effect="none" fill-rule="evenodd" d="M569.565,219.643 C569.565,216.697 567.177,214.31 564.232,214.31 C561.286,214.31 558.899,216.697 558.899,219.643 C558.899,222.588 561.286,224.976 564.232,224.976 C567.177,224.976 569.565,222.588 569.565,219.643 "/>
</g>

<g fill="#0000ff" fill-opacity="1" stroke="none" transform="matrix(0.75,0,0,0.75,0,0)"
font-family="Helvetica" font-size="21" font-weight="700" font-style="normal" 
>
<circle cx="368.189" cy="184.714" r="5.33333"/>
</g>

<g fill="none" stroke="#1171be" stroke-opacity="1" stroke-width="2" stroke-linecap="butt" stroke-linejoin="miter" stroke-miterlimit="2" transform="matrix(0.75,0,0,0.75,0,0)"
font-family="Helvetica" font-size="21" font-weight="700" font-style="normal" 
>
<path vector-effect="none" fill-rule="evenodd" d="M373.522,184.714 C373.522,181.769 371.134,179.381 368.189,179.381 C365.243,179.381 362.855,181.769 362.855,184.714 C362.855,187.66 365.243,190.048 368.189,190.048 C371.134,190.048 373.522,187.66 373.522,184.714 "/>
</g>

<g fill="#0000ff" fill-opacity="1" stroke="none" transform="matrix(0.75,0,0,0.75,0,0)"
font-family="Helvetica" font-size="21" font-weight="700" font-style="normal" 
>
<circle cx="375.667" cy="149.786" r="5.33333"/>
</g>

<g fill="none" stroke="#1171be" stroke-opacity="1" stroke-width="2" stroke-linecap="butt" stroke-linejoin="miter" stroke-miterlimit="2" transform="matrix(0.75,0,0,0.75,0,0)"
font-family="Helvetica" font-size="21" font-weight="700" font-style="normal" 
>
<path vector-effect="none" fill-rule="evenodd" d="M381,149.786 C381,146.84 378.612,144.452 375.667,144.452 C372.721,144.452 370.334,146.84 370.334,149.786 C370.334,152.731 372.721,155.119 375.667,155.119 C378.612,155.119 381,152.731 381,149.786 "/>
</g>

<g fill="#0000ff" fill-opacity="1" stroke="none" transform="matrix(0.75,0,0,0.75,0,0)"
font-family="Helvetica" font-size="21" font-weight="700" font-style="normal" 
>
<circle cx="343.735" cy="114.857" r="5.33333"/>
</g>

<g fill="none" stroke="#1171be" stroke-opacity="1" stroke-width="2" stroke-linecap="butt" stroke-linejoin="miter" stroke-miterlimit="2" transform="matrix(0.75,0,0,0.75,0,0)"
font-family="Helvetica" font-size="21" font-weight="700" font-style="normal" 
>
<path vector-effect="none" fill-rule="evenodd" d="M349.069,114.857 C349.069,111.912 346.681,109.524 343.735,109.524 C340.79,109.524 338.402,111.912 338.402,114.857 C338.402,117.803 340.79,120.19 343.735,120.19 C346.681,120.19 349.069,117.803 349.069,114.857 "/>
</g>

<g fill="#0000ff" fill-opacity="1" stroke="none" transform="matrix(0.75,0,0,0.75,0,0)"
font-family="Helvetica" font-size="21" font-weight="700" font-style="normal" 
>
<circle cx="356.742" cy="79.9286" r="5.33333"/>
</g>

<g fill="none" stroke="#1171be" stroke-opacity="1" stroke-width="2" stroke-linecap="butt" stroke-linejoin="miter" stroke-miterlimit="2" transform="matrix(0.75,0,0,0.75,0,0)"
font-family="Helvetica" font-size="21" font-weight="700" font-style="normal" 
>
<path vector-effect="none" fill-rule="evenodd" d="M362.075,79.9286 C362.075,76.9831 359.687,74.5952 356.742,74.5952 C353.796,74.5952 351.409,76.9831 351.409,79.9286 C351.409,82.8741 353.796,85.2619 356.742,85.2619 C359.687,85.2619 362.075,82.8741 362.075,79.9286 "/>
</g>

<g fill="#1171be" fill-opacity="1" stroke="#1171be" stroke-opacity="1" stroke-width="2" stroke-linecap="butt" stroke-linejoin="miter" stroke-miterlimit="2" transform="matrix(0.75,0,0,0.75,0,0)"
font-family="Helvetica" font-size="21" font-weight="700" font-style="normal" 
>
<polyline fill="none" vector-effect="none" points="267.463,492.071 267.463,506.071 " />
<polyline fill="none" vector-effect="none" points="500.334,457.143 500.334,471.143 " />
<polyline fill="none" vector-effect="none" points="381.228,422.214 381.228,436.214 " />
<polyline fill="none" vector-effect="none" points="300.429,387.286 300.429,401.286 " />
<polyline fill="none" vector-effect="none" points="404.438,352.357 404.438,366.357 " />
<polyline fill="none" vector-effect="none" points="355.28,317.429 355.28,331.429 " />
<polyline fill="none" vector-effect="none" points="349.101,247.571 349.101,261.571 " />
<polyline fill="none" vector-effect="none" points="477.362,212.643 477.362,226.643 " />
<polyline fill="none" vector-effect="none" points="286.92,177.714 286.92,191.714 " />
<polyline fill="none" vector-effect="none" points="294.62,142.786 294.62,156.786 " />
<polyline fill="none" vector-effect="none" points="273.169,107.857 273.169,121.857 " />
<polyline fill="none" vector-effect="none" points="291.936,72.9286 291.936,86.9286 " />
<polyline fill="none" vector-effect="none" points="430.066,492.071 430.066,506.071 " />
<polyline fill="none" vector-effect="none" points="661.017,457.143 661.017,471.143 " />
<polyline fill="none" vector-effect="none" points="636.365,422.214 636.365,436.214 " />
<polyline fill="none" vector-effect="none" points="473.913,387.286 473.913,401.286 " />
<polyline fill="none" vector-effect="none" points="671.617,352.357 671.617,366.357 " />
<polyline fill="none" vector-effect="none" points="572.283,317.429 572.283,331.429 " />
<polyline fill="none" vector-effect="none" points="559.721,247.571 559.721,261.571 " />
<polyline fill="none" vector-effect="none" points="702.921,212.643 702.921,226.643 " />
<polyline fill="none" vector-effect="none" points="453.725,177.714 453.725,191.714 " />
<polyline fill="none" vector-effect="none" points="461.165,142.786 461.165,156.786 " />
<polyline fill="none" vector-effect="none" points="426.92,107.857 426.92,121.857 " />
<polyline fill="none" vector-effect="none" points="423.778,72.9286 423.778,86.9286 " />
</g>

<g fill="#212121" fill-opacity="1" stroke="#212121" stroke-opacity="1" stroke-width="1" stroke-linecap="square" stroke-linejoin="bevel" transform="matrix(0.75,0,0,0.75,332.112,377.679)"
font-family="Helvetica" font-size="13" font-weight="400" font-style="normal" 
>
<text fill="#212121" fill-opacity="1" stroke="none" xml:space="preserve" x="0" y="0" font-family="Helvetica" font-size="13" font-weight="400" font-style="normal" 
 >.19 [.01, .65]</text>
</g>

<g fill="#212121" fill-opacity="1" stroke="#212121" stroke-opacity="1" stroke-width="1" stroke-linecap="square" stroke-linejoin="bevel" transform="matrix(0.75,0,0,0.75,505.326,351.482)"
font-family="Helvetica" font-size="13" font-weight="400" font-style="normal" 
>
<text fill="#212121" fill-opacity="1" stroke="none" xml:space="preserve" x="0" y="0" font-family="Helvetica" font-size="13" font-weight="400" font-style="normal" 
 >1.17 [.92, 1.55]</text>
</g>

<g fill="#212121" fill-opacity="1" stroke="#212121" stroke-opacity="1" stroke-width="1" stroke-linecap="square" stroke-linejoin="bevel" transform="matrix(0.75,0,0,0.75,486.837,325.286)"
font-family="Helvetica" font-size="13" font-weight="400" font-style="normal" 
>
<text fill="#212121" fill-opacity="1" stroke="none" xml:space="preserve" x="0" y="0" font-family="Helvetica" font-size="13" font-weight="400" font-style="normal" 
 >.85 [.46, 1.46]</text>
</g>

<g fill="#212121" fill-opacity="1" stroke="#212121" stroke-opacity="1" stroke-width="1" stroke-linecap="square" stroke-linejoin="bevel" transform="matrix(0.75,0,0,0.75,364.997,299.089)"
font-family="Helvetica" font-size="13" font-weight="400" font-style="normal" 
>
<text fill="#212121" fill-opacity="1" stroke="none" xml:space="preserve" x="0" y="0" font-family="Helvetica" font-size="13" font-weight="400" font-style="normal" 
 >.46 [.14, .82]</text>
</g>

<g fill="#212121" fill-opacity="1" stroke="#212121" stroke-opacity="1" stroke-width="1" stroke-linecap="square" stroke-linejoin="bevel" transform="matrix(0.75,0,0,0.75,513.275,272.893)"
font-family="Helvetica" font-size="13" font-weight="400" font-style="normal" 
>
<text fill="#212121" fill-opacity="1" stroke="none" xml:space="preserve" x="0" y="0" font-family="Helvetica" font-size="13" font-weight="400" font-style="normal" 
 >.95 [.55, 1.59]</text>
</g>

<g fill="#212121" fill-opacity="1" stroke="#212121" stroke-opacity="1" stroke-width="1" stroke-linecap="square" stroke-linejoin="bevel" transform="matrix(0.75,0,0,0.75,438.775,246.696)"
font-family="Helvetica" font-size="13" font-weight="400" font-style="normal" 
>
<text fill="#212121" fill-opacity="1" stroke="none" xml:space="preserve" x="0" y="0" font-family="Helvetica" font-size="13" font-weight="400" font-style="normal" 
 >.71 [.35, 1.21]</text>
</g>

<g fill="#212121" fill-opacity="1" stroke="#212121" stroke-opacity="1" stroke-width="1" stroke-linecap="square" stroke-linejoin="bevel" transform="matrix(0.75,0,0,0.75,429.353,194.304)"
font-family="Helvetica" font-size="13" font-weight="400" font-style="normal" 
>
<text fill="#212121" fill-opacity="1" stroke="none" xml:space="preserve" x="0" y="0" font-family="Helvetica" font-size="13" font-weight="400" font-style="normal" 
 >.69 [.33, 1.16]</text>
</g>

<g fill="#212121" fill-opacity="1" stroke="#212121" stroke-opacity="1" stroke-width="1" stroke-linecap="square" stroke-linejoin="bevel" transform="matrix(0.75,0,0,0.75,536.753,168.107)"
font-family="Helvetica" font-size="13" font-weight="400" font-style="normal" 
>
<text fill="#212121" fill-opacity="1" stroke="none" xml:space="preserve" x="0" y="0" font-family="Helvetica" font-size="13" font-weight="400" font-style="normal" 
 >1.17 [.83, 1.72]</text>
</g>

<g fill="#212121" fill-opacity="1" stroke="#212121" stroke-opacity="1" stroke-width="1" stroke-linecap="square" stroke-linejoin="bevel" transform="matrix(0.75,0,0,0.75,349.856,141.911)"
font-family="Helvetica" font-size="13" font-weight="400" font-style="normal" 
>
<text fill="#212121" fill-opacity="1" stroke="none" xml:space="preserve" x="0" y="0" font-family="Helvetica" font-size="13" font-weight="400" font-style="normal" 
 >.40 [.09, .74]</text>
</g>

<g fill="#212121" fill-opacity="1" stroke="#212121" stroke-opacity="1" stroke-width="1" stroke-linecap="square" stroke-linejoin="bevel" transform="matrix(0.75,0,0,0.75,355.436,115.714)"
font-family="Helvetica" font-size="13" font-weight="400" font-style="normal" 
>
<text fill="#212121" fill-opacity="1" stroke="none" xml:space="preserve" x="0" y="0" font-family="Helvetica" font-size="13" font-weight="400" font-style="normal" 
 >.43 [.12, .77]</text>
</g>

<g fill="#212121" fill-opacity="1" stroke="#212121" stroke-opacity="1" stroke-width="1" stroke-linecap="square" stroke-linejoin="bevel" transform="matrix(0.75,0,0,0.75,329.752,89.5179)"
font-family="Helvetica" font-size="13" font-weight="400" font-style="normal" 
>
<text fill="#212121" fill-opacity="1" stroke="none" xml:space="preserve" x="0" y="0" font-family="Helvetica" font-size="13" font-weight="400" font-style="normal" 
 >.31 [.03, .63]</text>
</g>

<g fill="#212121" fill-opacity="1" stroke="#212121" stroke-opacity="1" stroke-width="1" stroke-linecap="square" stroke-linejoin="bevel" transform="matrix(0.75,0,0,0.75,327.396,63.3214)"
font-family="Helvetica" font-size="13" font-weight="400" font-style="normal" 
>
<text fill="#212121" fill-opacity="1" stroke="none" xml:space="preserve" x="0" y="0" font-family="Helvetica" font-size="13" font-weight="400" font-style="normal" 
 >.36 [.11, .62]</text>
</g>
</g>
</svg>
